<mxfile>
    <diagram id="nWQcHyqigEhxeMRISxra" name="Redshiftの構成">
        <mxGraphModel dx="1422" dy="830" grid="1" gridSize="10" guides="1" tooltips="1" connect="1" arrows="1" fold="1" page="1" pageScale="1" pageWidth="827" pageHeight="1169" math="0" shadow="0">
            <root>
                <mxCell id="GUm7zRhh-KJ9if9UynZF-0"/>
                <mxCell id="GUm7zRhh-KJ9if9UynZF-1" parent="GUm7zRhh-KJ9if9UynZF-0"/>
                <mxCell id="2W3m7iXVrk22qpuzCPFB-16" value="" style="rounded=0;whiteSpace=wrap;html=1;fillColor=none;" vertex="1" parent="GUm7zRhh-KJ9if9UynZF-1">
                    <mxGeometry x="20" y="20" width="660" height="370" as="geometry"/>
                </mxCell>
                <mxCell id="2W3m7iXVrk22qpuzCPFB-0" value="" style="strokeWidth=2;html=1;shape=mxgraph.flowchart.database;whiteSpace=wrap;" vertex="1" parent="GUm7zRhh-KJ9if9UynZF-1">
                    <mxGeometry x="90" y="285" width="60" height="40" as="geometry"/>
                </mxCell>
                <mxCell id="2W3m7iXVrk22qpuzCPFB-1" value="" style="strokeWidth=2;html=1;shape=mxgraph.flowchart.database;whiteSpace=wrap;" vertex="1" parent="GUm7zRhh-KJ9if9UynZF-1">
                    <mxGeometry x="130" y="315" width="60" height="40" as="geometry"/>
                </mxCell>
                <mxCell id="2W3m7iXVrk22qpuzCPFB-2" value="" style="strokeWidth=2;html=1;shape=mxgraph.flowchart.database;whiteSpace=wrap;" vertex="1" parent="GUm7zRhh-KJ9if9UynZF-1">
                    <mxGeometry x="50" y="315" width="60" height="40" as="geometry"/>
                </mxCell>
                <mxCell id="2W3m7iXVrk22qpuzCPFB-9" value="" style="strokeWidth=2;html=1;shape=mxgraph.flowchart.database;whiteSpace=wrap;" vertex="1" parent="GUm7zRhh-KJ9if9UynZF-1">
                    <mxGeometry x="240" y="285" width="60" height="40" as="geometry"/>
                </mxCell>
                <mxCell id="2W3m7iXVrk22qpuzCPFB-10" value="" style="strokeWidth=2;html=1;shape=mxgraph.flowchart.database;whiteSpace=wrap;" vertex="1" parent="GUm7zRhh-KJ9if9UynZF-1">
                    <mxGeometry x="280" y="315" width="60" height="40" as="geometry"/>
                </mxCell>
                <mxCell id="2W3m7iXVrk22qpuzCPFB-11" value="" style="strokeWidth=2;html=1;shape=mxgraph.flowchart.database;whiteSpace=wrap;" vertex="1" parent="GUm7zRhh-KJ9if9UynZF-1">
                    <mxGeometry x="200" y="315" width="60" height="40" as="geometry"/>
                </mxCell>
                <mxCell id="2W3m7iXVrk22qpuzCPFB-15" value="" style="outlineConnect=0;dashed=0;verticalLabelPosition=bottom;verticalAlign=top;align=center;html=1;shape=mxgraph.aws3.redshift;fillColor=#2E73B8;gradientColor=none;" vertex="1" parent="GUm7zRhh-KJ9if9UynZF-1">
                    <mxGeometry x="10" y="10" width="50" height="50" as="geometry"/>
                </mxCell>
                <mxCell id="2W3m7iXVrk22qpuzCPFB-18" value="コンピュートノード" style="rounded=0;whiteSpace=wrap;html=1;fillColor=none;verticalAlign=top;" vertex="1" parent="GUm7zRhh-KJ9if9UynZF-1">
                    <mxGeometry x="50" y="190" width="290" height="70" as="geometry"/>
                </mxCell>
                <mxCell id="2W3m7iXVrk22qpuzCPFB-37" style="edgeStyle=orthogonalEdgeStyle;rounded=0;orthogonalLoop=1;jettySize=auto;html=1;exitX=0.5;exitY=1;exitDx=0;exitDy=0;entryX=0.5;entryY=0;entryDx=0;entryDy=0;entryPerimeter=0;" edge="1" parent="GUm7zRhh-KJ9if9UynZF-1" source="2W3m7iXVrk22qpuzCPFB-19" target="2W3m7iXVrk22qpuzCPFB-0">
                    <mxGeometry relative="1" as="geometry"/>
                </mxCell>
                <mxCell id="2W3m7iXVrk22qpuzCPFB-19" value="スライス" style="rounded=0;whiteSpace=wrap;html=1;fillColor=none;verticalAlign=middle;" vertex="1" parent="GUm7zRhh-KJ9if9UynZF-1">
                    <mxGeometry x="60" y="220" width="130" height="30" as="geometry"/>
                </mxCell>
                <mxCell id="2W3m7iXVrk22qpuzCPFB-38" value="" style="edgeStyle=orthogonalEdgeStyle;rounded=0;orthogonalLoop=1;jettySize=auto;html=1;entryX=0.5;entryY=0;entryDx=0;entryDy=0;entryPerimeter=0;" edge="1" parent="GUm7zRhh-KJ9if9UynZF-1" source="2W3m7iXVrk22qpuzCPFB-20" target="2W3m7iXVrk22qpuzCPFB-9">
                    <mxGeometry relative="1" as="geometry"/>
                </mxCell>
                <mxCell id="2W3m7iXVrk22qpuzCPFB-20" value="スライス" style="rounded=0;whiteSpace=wrap;html=1;fillColor=none;verticalAlign=middle;" vertex="1" parent="GUm7zRhh-KJ9if9UynZF-1">
                    <mxGeometry x="205" y="220" width="130" height="30" as="geometry"/>
                </mxCell>
                <mxCell id="2W3m7iXVrk22qpuzCPFB-35" style="edgeStyle=orthogonalEdgeStyle;rounded=0;orthogonalLoop=1;jettySize=auto;html=1;exitX=0.5;exitY=1;exitDx=0;exitDy=0;entryX=0.5;entryY=0;entryDx=0;entryDy=0;" edge="1" parent="GUm7zRhh-KJ9if9UynZF-1" source="2W3m7iXVrk22qpuzCPFB-25" target="2W3m7iXVrk22qpuzCPFB-18">
                    <mxGeometry relative="1" as="geometry">
                        <Array as="points">
                            <mxPoint x="350" y="180"/>
                            <mxPoint x="195" y="180"/>
                        </Array>
                    </mxGeometry>
                </mxCell>
                <mxCell id="2W3m7iXVrk22qpuzCPFB-36" style="edgeStyle=orthogonalEdgeStyle;rounded=0;orthogonalLoop=1;jettySize=auto;html=1;exitX=0.5;exitY=1;exitDx=0;exitDy=0;entryX=0.5;entryY=0;entryDx=0;entryDy=0;" edge="1" parent="GUm7zRhh-KJ9if9UynZF-1" source="2W3m7iXVrk22qpuzCPFB-25" target="2W3m7iXVrk22qpuzCPFB-32">
                    <mxGeometry relative="1" as="geometry">
                        <Array as="points">
                            <mxPoint x="350" y="180"/>
                            <mxPoint x="505" y="180"/>
                        </Array>
                    </mxGeometry>
                </mxCell>
                <mxCell id="2W3m7iXVrk22qpuzCPFB-25" value="リーダーノード" style="rounded=0;whiteSpace=wrap;html=1;fillColor=none;verticalAlign=top;" vertex="1" parent="GUm7zRhh-KJ9if9UynZF-1">
                    <mxGeometry x="230" y="40" width="240" height="130" as="geometry"/>
                </mxCell>
                <mxCell id="2W3m7iXVrk22qpuzCPFB-26" value="" style="strokeWidth=2;html=1;shape=mxgraph.flowchart.database;whiteSpace=wrap;" vertex="1" parent="GUm7zRhh-KJ9if9UynZF-1">
                    <mxGeometry x="400" y="285" width="60" height="40" as="geometry"/>
                </mxCell>
                <mxCell id="2W3m7iXVrk22qpuzCPFB-27" value="" style="strokeWidth=2;html=1;shape=mxgraph.flowchart.database;whiteSpace=wrap;" vertex="1" parent="GUm7zRhh-KJ9if9UynZF-1">
                    <mxGeometry x="440" y="315" width="60" height="40" as="geometry"/>
                </mxCell>
                <mxCell id="2W3m7iXVrk22qpuzCPFB-28" value="" style="strokeWidth=2;html=1;shape=mxgraph.flowchart.database;whiteSpace=wrap;" vertex="1" parent="GUm7zRhh-KJ9if9UynZF-1">
                    <mxGeometry x="360" y="315" width="60" height="40" as="geometry"/>
                </mxCell>
                <mxCell id="2W3m7iXVrk22qpuzCPFB-29" value="" style="strokeWidth=2;html=1;shape=mxgraph.flowchart.database;whiteSpace=wrap;" vertex="1" parent="GUm7zRhh-KJ9if9UynZF-1">
                    <mxGeometry x="550" y="285" width="60" height="40" as="geometry"/>
                </mxCell>
                <mxCell id="2W3m7iXVrk22qpuzCPFB-30" value="" style="strokeWidth=2;html=1;shape=mxgraph.flowchart.database;whiteSpace=wrap;" vertex="1" parent="GUm7zRhh-KJ9if9UynZF-1">
                    <mxGeometry x="590" y="315" width="60" height="40" as="geometry"/>
                </mxCell>
                <mxCell id="2W3m7iXVrk22qpuzCPFB-31" value="" style="strokeWidth=2;html=1;shape=mxgraph.flowchart.database;whiteSpace=wrap;" vertex="1" parent="GUm7zRhh-KJ9if9UynZF-1">
                    <mxGeometry x="510" y="315" width="60" height="40" as="geometry"/>
                </mxCell>
                <mxCell id="2W3m7iXVrk22qpuzCPFB-32" value="コンピュートノード" style="rounded=0;whiteSpace=wrap;html=1;fillColor=none;verticalAlign=top;" vertex="1" parent="GUm7zRhh-KJ9if9UynZF-1">
                    <mxGeometry x="360" y="190" width="290" height="70" as="geometry"/>
                </mxCell>
                <mxCell id="2W3m7iXVrk22qpuzCPFB-39" style="edgeStyle=orthogonalEdgeStyle;rounded=0;orthogonalLoop=1;jettySize=auto;html=1;exitX=0.5;exitY=1;exitDx=0;exitDy=0;entryX=0.5;entryY=0;entryDx=0;entryDy=0;entryPerimeter=0;" edge="1" parent="GUm7zRhh-KJ9if9UynZF-1" source="2W3m7iXVrk22qpuzCPFB-33" target="2W3m7iXVrk22qpuzCPFB-26">
                    <mxGeometry relative="1" as="geometry"/>
                </mxCell>
                <mxCell id="2W3m7iXVrk22qpuzCPFB-33" value="スライス" style="rounded=0;whiteSpace=wrap;html=1;fillColor=none;verticalAlign=middle;" vertex="1" parent="GUm7zRhh-KJ9if9UynZF-1">
                    <mxGeometry x="370" y="220" width="130" height="30" as="geometry"/>
                </mxCell>
                <mxCell id="2W3m7iXVrk22qpuzCPFB-40" style="edgeStyle=orthogonalEdgeStyle;rounded=0;orthogonalLoop=1;jettySize=auto;html=1;exitX=0.5;exitY=1;exitDx=0;exitDy=0;entryX=0.5;entryY=0;entryDx=0;entryDy=0;entryPerimeter=0;" edge="1" parent="GUm7zRhh-KJ9if9UynZF-1" source="2W3m7iXVrk22qpuzCPFB-34" target="2W3m7iXVrk22qpuzCPFB-29">
                    <mxGeometry relative="1" as="geometry"/>
                </mxCell>
                <mxCell id="2W3m7iXVrk22qpuzCPFB-34" value="スライス" style="rounded=0;whiteSpace=wrap;html=1;fillColor=none;verticalAlign=middle;" vertex="1" parent="GUm7zRhh-KJ9if9UynZF-1">
                    <mxGeometry x="510" y="220" width="130" height="30" as="geometry"/>
                </mxCell>
                <mxCell id="2W3m7iXVrk22qpuzCPFB-12" value="" style="strokeWidth=2;html=1;shape=mxgraph.flowchart.database;whiteSpace=wrap;" vertex="1" parent="GUm7zRhh-KJ9if9UynZF-1">
                    <mxGeometry x="320" y="80" width="60" height="40" as="geometry"/>
                </mxCell>
                <mxCell id="2W3m7iXVrk22qpuzCPFB-13" value="" style="strokeWidth=2;html=1;shape=mxgraph.flowchart.database;whiteSpace=wrap;" vertex="1" parent="GUm7zRhh-KJ9if9UynZF-1">
                    <mxGeometry x="360" y="110" width="60" height="40" as="geometry"/>
                </mxCell>
                <mxCell id="2W3m7iXVrk22qpuzCPFB-14" value="" style="strokeWidth=2;html=1;shape=mxgraph.flowchart.database;whiteSpace=wrap;" vertex="1" parent="GUm7zRhh-KJ9if9UynZF-1">
                    <mxGeometry x="280" y="110" width="60" height="40" as="geometry"/>
                </mxCell>
                <mxCell id="2W3m7iXVrk22qpuzCPFB-41" value="Redshiftクラスタ" style="text;html=1;strokeColor=none;fillColor=none;align=center;verticalAlign=middle;whiteSpace=wrap;rounded=0;" vertex="1" parent="GUm7zRhh-KJ9if9UynZF-1">
                    <mxGeometry x="60" y="25" width="110" height="20" as="geometry"/>
                </mxCell>
            </root>
        </mxGraphModel>
    </diagram>
    <diagram id="3937Sx6mrg3jVrlZ0Cja" name="Auroraの構成要素">
        <mxGraphModel dx="1422" dy="830" grid="1" gridSize="10" guides="1" tooltips="1" connect="1" arrows="1" fold="1" page="1" pageScale="1" pageWidth="827" pageHeight="1169" math="0" shadow="0">
            <root>
                <mxCell id="t3JRFxsmLGdS5MA3n8nu-0"/>
                <mxCell id="t3JRFxsmLGdS5MA3n8nu-1" parent="t3JRFxsmLGdS5MA3n8nu-0"/>
                <mxCell id="t3JRFxsmLGdS5MA3n8nu-26" value="Availability zone" style="outlineConnect=0;gradientColor=none;html=1;whiteSpace=wrap;fontSize=12;fontStyle=0;shape=mxgraph.aws4.group;grIcon=mxgraph.aws4.group_availability_zone;strokeColor=#E8E8E8;fillColor=none;verticalAlign=top;align=left;spacingLeft=30;fontColor=#E8E8E8;dashed=1;" parent="t3JRFxsmLGdS5MA3n8nu-1" vertex="1">
                    <mxGeometry x="200" y="40" width="170" height="380" as="geometry"/>
                </mxCell>
                <mxCell id="t3JRFxsmLGdS5MA3n8nu-15" value="" style="rounded=0;whiteSpace=wrap;html=1;fontColor=#999999;fillColor=none;" parent="t3JRFxsmLGdS5MA3n8nu-1" vertex="1">
                    <mxGeometry x="40" y="80" width="510" height="330" as="geometry"/>
                </mxCell>
                <mxCell id="t3JRFxsmLGdS5MA3n8nu-2" value="Region" style="outlineConnect=0;gradientColor=none;html=1;whiteSpace=wrap;fontSize=12;fontStyle=0;shape=mxgraph.aws4.group;grIcon=mxgraph.aws4.group_region;strokeColor=#B6BABF;fillColor=none;verticalAlign=top;align=left;spacingLeft=30;fontColor=#B6BABF;dashed=1;" parent="t3JRFxsmLGdS5MA3n8nu-1" vertex="1">
                    <mxGeometry x="10" y="10" width="560" height="420" as="geometry"/>
                </mxCell>
                <mxCell id="t3JRFxsmLGdS5MA3n8nu-3" value="Availability zone" style="outlineConnect=0;gradientColor=none;html=1;whiteSpace=wrap;fontSize=12;fontStyle=0;shape=mxgraph.aws4.group;grIcon=mxgraph.aws4.group_availability_zone;strokeColor=#E8E8E8;fillColor=none;verticalAlign=top;align=left;spacingLeft=30;fontColor=#E8E8E8;dashed=1;" parent="t3JRFxsmLGdS5MA3n8nu-1" vertex="1">
                    <mxGeometry x="20" y="40" width="170" height="380" as="geometry"/>
                </mxCell>
                <mxCell id="t3JRFxsmLGdS5MA3n8nu-10" value="" style="strokeWidth=2;html=1;shape=mxgraph.flowchart.database;whiteSpace=wrap;fontColor=#999999;" parent="t3JRFxsmLGdS5MA3n8nu-1" vertex="1">
                    <mxGeometry x="60" y="360" width="50" height="30" as="geometry"/>
                </mxCell>
                <mxCell id="t3JRFxsmLGdS5MA3n8nu-11" value="" style="strokeWidth=2;html=1;shape=mxgraph.flowchart.database;whiteSpace=wrap;fontColor=#999999;" parent="t3JRFxsmLGdS5MA3n8nu-1" vertex="1">
                    <mxGeometry x="120" y="360" width="50" height="30" as="geometry"/>
                </mxCell>
                <mxCell id="t3JRFxsmLGdS5MA3n8nu-14" value="" style="points=[[0,0,0],[0.25,0,0],[0.5,0,0],[0.75,0,0],[1,0,0],[0,1,0],[0.25,1,0],[0.5,1,0],[0.75,1,0],[1,1,0],[0,0.25,0],[0,0.5,0],[0,0.75,0],[1,0.25,0],[1,0.5,0],[1,0.75,0]];outlineConnect=0;fontColor=#232F3E;gradientColor=#4D72F3;gradientDirection=north;fillColor=#3334B9;strokeColor=#ffffff;dashed=0;verticalLabelPosition=bottom;verticalAlign=top;align=center;html=1;fontSize=12;fontStyle=0;aspect=fixed;shape=mxgraph.aws4.resourceIcon;resIcon=mxgraph.aws4.aurora;" parent="t3JRFxsmLGdS5MA3n8nu-1" vertex="1">
                    <mxGeometry x="30" y="70" width="50" height="50" as="geometry"/>
                </mxCell>
                <mxCell id="t3JRFxsmLGdS5MA3n8nu-57" style="edgeStyle=orthogonalEdgeStyle;rounded=0;orthogonalLoop=1;jettySize=auto;html=1;exitX=0.5;exitY=0.98;exitDx=0;exitDy=0;exitPerimeter=0;fontColor=#999999;" parent="t3JRFxsmLGdS5MA3n8nu-1" source="t3JRFxsmLGdS5MA3n8nu-18" target="t3JRFxsmLGdS5MA3n8nu-24" edge="1">
                    <mxGeometry relative="1" as="geometry"/>
                </mxCell>
                <mxCell id="t3JRFxsmLGdS5MA3n8nu-18" value="" style="outlineConnect=0;dashed=0;verticalLabelPosition=bottom;verticalAlign=top;align=center;html=1;shape=mxgraph.aws3.rds_db_instance;fillColor=#2E73B8;gradientColor=none;fontColor=#999999;" parent="t3JRFxsmLGdS5MA3n8nu-1" vertex="1">
                    <mxGeometry x="95" y="130" width="40" height="40" as="geometry"/>
                </mxCell>
                <mxCell id="t3JRFxsmLGdS5MA3n8nu-59" style="edgeStyle=orthogonalEdgeStyle;rounded=0;orthogonalLoop=1;jettySize=auto;html=1;entryX=0.5;entryY=0;entryDx=0;entryDy=0;fontColor=#999999;" parent="t3JRFxsmLGdS5MA3n8nu-1" source="t3JRFxsmLGdS5MA3n8nu-19" target="t3JRFxsmLGdS5MA3n8nu-35" edge="1">
                    <mxGeometry relative="1" as="geometry"/>
                </mxCell>
                <mxCell id="t3JRFxsmLGdS5MA3n8nu-19" value="" style="outlineConnect=0;dashed=0;verticalLabelPosition=bottom;verticalAlign=top;align=center;html=1;shape=mxgraph.aws3.rds_db_instance_read_replica;fillColor=#2E73B8;gradientColor=none;fontColor=#999999;" parent="t3JRFxsmLGdS5MA3n8nu-1" vertex="1">
                    <mxGeometry x="265" y="130" width="40" height="40" as="geometry"/>
                </mxCell>
                <mxCell id="t3JRFxsmLGdS5MA3n8nu-21" value="&lt;span style=&quot;color: rgb(153 , 153 , 153) ; font-family: &amp;#34;helvetica&amp;#34; ; font-size: 12px ; font-style: normal ; font-weight: 400 ; letter-spacing: normal ; text-align: center ; text-indent: 0px ; text-transform: none ; word-spacing: 0px ; display: inline ; float: none&quot;&gt;Auroraクラスタ&lt;/span&gt;" style="text;html=1;strokeColor=none;fillColor=none;align=center;verticalAlign=middle;whiteSpace=wrap;rounded=0;fontColor=#999999;" parent="t3JRFxsmLGdS5MA3n8nu-1" vertex="1">
                    <mxGeometry x="80" y="80" width="100" height="20" as="geometry"/>
                </mxCell>
                <mxCell id="t3JRFxsmLGdS5MA3n8nu-22" value="Transaction&lt;span style=&quot;color: rgba(0 , 0 , 0 , 0) ; font-family: monospace ; font-size: 0px&quot;&gt;%3CmxGraphModel%3E%3Croot%3E%3CmxCell%20id%3D%220%22%2F%3E%3CmxCell%20id%3D%221%22%20parent%3D%220%22%2F%3E%3CmxCell%20id%3D%222%22%20value%3D%22SQL%20Execute%22%20style%3D%22rounded%3D0%3BwhiteSpace%3Dwrap%3Bhtml%3D1%3BfontColor%3D%23999999%3B%22%20vertex%3D%221%22%20parent%3D%221%22%3E%3CmxGeometry%20x%3D%2250%22%20y%3D%22190%22%20width%3D%22110%22%20height%3D%2230%22%20as%3D%22geometry%22%2F%3E%3C%2FmxCell%3E%3C%2Froot%3E%3C%2FmxGraphModel%3E&lt;/span&gt;" style="rounded=0;whiteSpace=wrap;html=1;fontColor=#999999;" parent="t3JRFxsmLGdS5MA3n8nu-1" vertex="1">
                    <mxGeometry x="50" y="220" width="130" height="30" as="geometry"/>
                </mxCell>
                <mxCell id="t3JRFxsmLGdS5MA3n8nu-23" value="Cache" style="rounded=0;whiteSpace=wrap;html=1;fontColor=#999999;" parent="t3JRFxsmLGdS5MA3n8nu-1" vertex="1">
                    <mxGeometry x="50" y="270" width="130" height="30" as="geometry"/>
                </mxCell>
                <mxCell id="t3JRFxsmLGdS5MA3n8nu-24" value="クラスタボリューム" style="rounded=0;whiteSpace=wrap;html=1;fillColor=none;fontColor=#999999;align=left;verticalAlign=top;" parent="t3JRFxsmLGdS5MA3n8nu-1" vertex="1">
                    <mxGeometry x="50" y="320" width="130" height="80" as="geometry"/>
                </mxCell>
                <mxCell id="t3JRFxsmLGdS5MA3n8nu-27" value="SQL Execute" style="rounded=0;whiteSpace=wrap;html=1;fontColor=#999999;" parent="t3JRFxsmLGdS5MA3n8nu-1" vertex="1">
                    <mxGeometry x="220" y="190" width="130" height="30" as="geometry"/>
                </mxCell>
                <mxCell id="t3JRFxsmLGdS5MA3n8nu-28" value="" style="strokeWidth=2;html=1;shape=mxgraph.flowchart.database;whiteSpace=wrap;fontColor=#999999;" parent="t3JRFxsmLGdS5MA3n8nu-1" vertex="1">
                    <mxGeometry x="230" y="360" width="50" height="30" as="geometry"/>
                </mxCell>
                <mxCell id="t3JRFxsmLGdS5MA3n8nu-29" value="" style="strokeWidth=2;html=1;shape=mxgraph.flowchart.database;whiteSpace=wrap;fontColor=#999999;" parent="t3JRFxsmLGdS5MA3n8nu-1" vertex="1">
                    <mxGeometry x="290" y="360" width="50" height="30" as="geometry"/>
                </mxCell>
                <mxCell id="t3JRFxsmLGdS5MA3n8nu-33" value="Transaction&lt;span style=&quot;color: rgba(0 , 0 , 0 , 0) ; font-family: monospace ; font-size: 0px&quot;&gt;%3CmxGraphModel%3E%3Croot%3E%3CmxCell%20id%3D%220%22%2F%3E%3CmxCell%20id%3D%221%22%20parent%3D%220%22%2F%3E%3CmxCell%20id%3D%222%22%20value%3D%22SQL%20Execute%22%20style%3D%22rounded%3D0%3BwhiteSpace%3Dwrap%3Bhtml%3D1%3BfontColor%3D%23999999%3B%22%20vertex%3D%221%22%20parent%3D%221%22%3E%3CmxGeometry%20x%3D%2250%22%20y%3D%22190%22%20width%3D%22110%22%20height%3D%2230%22%20as%3D%22geometry%22%2F%3E%3C%2FmxCell%3E%3C%2Froot%3E%3C%2FmxGraphModel%3E&lt;/span&gt;" style="rounded=0;whiteSpace=wrap;html=1;fontColor=#999999;" parent="t3JRFxsmLGdS5MA3n8nu-1" vertex="1">
                    <mxGeometry x="220" y="220" width="130" height="30" as="geometry"/>
                </mxCell>
                <mxCell id="t3JRFxsmLGdS5MA3n8nu-34" value="Cache" style="rounded=0;whiteSpace=wrap;html=1;fontColor=#999999;" parent="t3JRFxsmLGdS5MA3n8nu-1" vertex="1">
                    <mxGeometry x="220" y="270" width="130" height="30" as="geometry"/>
                </mxCell>
                <mxCell id="t3JRFxsmLGdS5MA3n8nu-35" value="クラスタボリューム" style="rounded=0;whiteSpace=wrap;html=1;fillColor=none;fontColor=#999999;align=left;verticalAlign=top;" parent="t3JRFxsmLGdS5MA3n8nu-1" vertex="1">
                    <mxGeometry x="220" y="320" width="130" height="80" as="geometry"/>
                </mxCell>
                <mxCell id="t3JRFxsmLGdS5MA3n8nu-46" value="Availability zone" style="outlineConnect=0;gradientColor=none;html=1;whiteSpace=wrap;fontSize=12;fontStyle=0;shape=mxgraph.aws4.group;grIcon=mxgraph.aws4.group_availability_zone;strokeColor=#E8E8E8;fillColor=none;verticalAlign=top;align=left;spacingLeft=30;fontColor=#E8E8E8;dashed=1;" parent="t3JRFxsmLGdS5MA3n8nu-1" vertex="1">
                    <mxGeometry x="380" y="40" width="180" height="380" as="geometry"/>
                </mxCell>
                <mxCell id="t3JRFxsmLGdS5MA3n8nu-48" value="" style="strokeWidth=2;html=1;shape=mxgraph.flowchart.database;whiteSpace=wrap;fontColor=#999999;" parent="t3JRFxsmLGdS5MA3n8nu-1" vertex="1">
                    <mxGeometry x="410" y="360" width="50" height="30" as="geometry"/>
                </mxCell>
                <mxCell id="t3JRFxsmLGdS5MA3n8nu-49" value="" style="strokeWidth=2;html=1;shape=mxgraph.flowchart.database;whiteSpace=wrap;fontColor=#999999;" parent="t3JRFxsmLGdS5MA3n8nu-1" vertex="1">
                    <mxGeometry x="470" y="360" width="50" height="30" as="geometry"/>
                </mxCell>
                <mxCell id="t3JRFxsmLGdS5MA3n8nu-55" value="クラスタボリューム" style="rounded=0;whiteSpace=wrap;html=1;fillColor=none;fontColor=#999999;align=left;verticalAlign=top;" parent="t3JRFxsmLGdS5MA3n8nu-1" vertex="1">
                    <mxGeometry x="400" y="320" width="130" height="80" as="geometry"/>
                </mxCell>
                <mxCell id="t3JRFxsmLGdS5MA3n8nu-58" style="edgeStyle=orthogonalEdgeStyle;rounded=0;orthogonalLoop=1;jettySize=auto;html=1;entryX=0.5;entryY=0;entryDx=0;entryDy=0;fontColor=#999999;" parent="t3JRFxsmLGdS5MA3n8nu-1" source="t3JRFxsmLGdS5MA3n8nu-56" target="t3JRFxsmLGdS5MA3n8nu-55" edge="1">
                    <mxGeometry relative="1" as="geometry"/>
                </mxCell>
                <mxCell id="t3JRFxsmLGdS5MA3n8nu-56" value="" style="outlineConnect=0;dashed=0;verticalLabelPosition=bottom;verticalAlign=top;align=center;html=1;shape=mxgraph.aws3.rds_db_instance_read_replica;fillColor=#2E73B8;gradientColor=none;fontColor=#999999;" parent="t3JRFxsmLGdS5MA3n8nu-1" vertex="1">
                    <mxGeometry x="445" y="130" width="40" height="40" as="geometry"/>
                </mxCell>
                <mxCell id="t3JRFxsmLGdS5MA3n8nu-4" value="SQL Execute" style="rounded=0;whiteSpace=wrap;html=1;fontColor=#999999;" parent="t3JRFxsmLGdS5MA3n8nu-1" vertex="1">
                    <mxGeometry x="50" y="190" width="130" height="30" as="geometry"/>
                </mxCell>
                <mxCell id="t3JRFxsmLGdS5MA3n8nu-47" value="SQL Execute" style="rounded=0;whiteSpace=wrap;html=1;fontColor=#999999;" parent="t3JRFxsmLGdS5MA3n8nu-1" vertex="1">
                    <mxGeometry x="400" y="190" width="130" height="30" as="geometry"/>
                </mxCell>
                <mxCell id="t3JRFxsmLGdS5MA3n8nu-53" value="Transaction&lt;span style=&quot;color: rgba(0 , 0 , 0 , 0) ; font-family: monospace ; font-size: 0px&quot;&gt;%3CmxGraphModel%3E%3Croot%3E%3CmxCell%20id%3D%220%22%2F%3E%3CmxCell%20id%3D%221%22%20parent%3D%220%22%2F%3E%3CmxCell%20id%3D%222%22%20value%3D%22SQL%20Execute%22%20style%3D%22rounded%3D0%3BwhiteSpace%3Dwrap%3Bhtml%3D1%3BfontColor%3D%23999999%3B%22%20vertex%3D%221%22%20parent%3D%221%22%3E%3CmxGeometry%20x%3D%2250%22%20y%3D%22190%22%20width%3D%22110%22%20height%3D%2230%22%20as%3D%22geometry%22%2F%3E%3C%2FmxCell%3E%3C%2Froot%3E%3C%2FmxGraphModel%3E&lt;/span&gt;" style="rounded=0;whiteSpace=wrap;html=1;fontColor=#999999;" parent="t3JRFxsmLGdS5MA3n8nu-1" vertex="1">
                    <mxGeometry x="400" y="220" width="130" height="30" as="geometry"/>
                </mxCell>
                <mxCell id="t3JRFxsmLGdS5MA3n8nu-54" value="Cache" style="rounded=0;whiteSpace=wrap;html=1;fontColor=#999999;" parent="t3JRFxsmLGdS5MA3n8nu-1" vertex="1">
                    <mxGeometry x="400" y="270" width="130" height="30" as="geometry"/>
                </mxCell>
            </root>
        </mxGraphModel>
    </diagram>
    <diagram id="vu3ZDydbV9aOx110c9WJ" name="Storage Gateway">
        <mxGraphModel dx="1422" dy="830" grid="1" gridSize="10" guides="1" tooltips="1" connect="1" arrows="1" fold="1" page="1" pageScale="1" pageWidth="827" pageHeight="1169" math="0" shadow="0">
            <root>
                <mxCell id="IOKurdRcrIk726-1JUdn-0"/>
                <mxCell id="IOKurdRcrIk726-1JUdn-1" parent="IOKurdRcrIk726-1JUdn-0"/>
                <mxCell id="IOKurdRcrIk726-1JUdn-4" value="企業データセンター" style="rounded=1;arcSize=10;dashed=0;fillColor=none;gradientColor=none;strokeWidth=2;fontColor=#999999;verticalAlign=top;" parent="IOKurdRcrIk726-1JUdn-1" vertex="1">
                    <mxGeometry x="10" y="30" width="180" height="170" as="geometry"/>
                </mxCell>
                <mxCell id="IOKurdRcrIk726-1JUdn-5" value="" style="dashed=0;html=1;shape=mxgraph.aws3.corporate_data_center;fillColor=#7D7C7C;gradientColor=none;dashed=0;" parent="IOKurdRcrIk726-1JUdn-1" vertex="1">
                    <mxGeometry x="30" y="10" width="30" height="42" as="geometry"/>
                </mxCell>
                <mxCell id="IOKurdRcrIk726-1JUdn-10" value="" style="rounded=1;arcSize=10;dashed=0;fillColor=none;gradientColor=none;strokeWidth=2;fontColor=#999999;" parent="IOKurdRcrIk726-1JUdn-1" vertex="1">
                    <mxGeometry x="380" y="30" width="190" height="170" as="geometry"/>
                </mxCell>
                <mxCell id="IOKurdRcrIk726-1JUdn-11" value="" style="dashed=0;html=1;shape=mxgraph.aws3.cloud;fillColor=#F58536;gradientColor=none;dashed=0;fontColor=#999999;" parent="IOKurdRcrIk726-1JUdn-1" vertex="1">
                    <mxGeometry x="400" y="10" width="52" height="36" as="geometry"/>
                </mxCell>
                <mxCell id="IOKurdRcrIk726-1JUdn-14" value="" style="outlineConnect=0;dashed=0;verticalLabelPosition=bottom;verticalAlign=top;align=center;html=1;shape=mxgraph.aws3.internet_2;fillColor=#D2D3D3;gradientColor=none;fontColor=#999999;" parent="IOKurdRcrIk726-1JUdn-1" vertex="1">
                    <mxGeometry x="250.5" y="10" width="79.5" height="54" as="geometry"/>
                </mxCell>
                <mxCell id="IOKurdRcrIk726-1JUdn-19" style="edgeStyle=orthogonalEdgeStyle;rounded=0;orthogonalLoop=1;jettySize=auto;html=1;entryX=0;entryY=0.5;entryDx=0;entryDy=0;entryPerimeter=0;fontColor=#999999;" parent="IOKurdRcrIk726-1JUdn-1" source="IOKurdRcrIk726-1JUdn-8" target="IOKurdRcrIk726-1JUdn-17" edge="1">
                    <mxGeometry relative="1" as="geometry"/>
                </mxCell>
                <mxCell id="IOKurdRcrIk726-1JUdn-8" value="Traditional&lt;br&gt;セーバー" style="pointerEvents=1;shadow=0;dashed=0;html=1;strokeColor=none;labelPosition=center;verticalLabelPosition=bottom;verticalAlign=top;outlineConnect=0;align=center;shape=mxgraph.office.servers.server_generic;fillColor=#CCCBCB;fontColor=#999999;" parent="IOKurdRcrIk726-1JUdn-1" vertex="1">
                    <mxGeometry x="50" y="79" width="27" height="52" as="geometry"/>
                </mxCell>
                <mxCell id="IOKurdRcrIk726-1JUdn-17" value="&lt;font color=&quot;#999999&quot;&gt;S3 Glacier&lt;/font&gt;" style="points=[[0,0,0],[0.25,0,0],[0.5,0,0],[0.75,0,0],[1,0,0],[0,1,0],[0.25,1,0],[0.5,1,0],[0.75,1,0],[1,1,0],[0,0.25,0],[0,0.5,0],[0,0.75,0],[1,0.25,0],[1,0.5,0],[1,0.75,0]];outlineConnect=0;fontColor=#232F3E;gradientColor=#60A337;gradientDirection=north;fillColor=#277116;strokeColor=#ffffff;dashed=0;verticalLabelPosition=bottom;verticalAlign=top;align=center;html=1;fontSize=12;fontStyle=0;aspect=fixed;shape=mxgraph.aws4.resourceIcon;resIcon=mxgraph.aws4.glacier;" parent="IOKurdRcrIk726-1JUdn-1" vertex="1">
                    <mxGeometry x="490" y="81" width="48" height="48" as="geometry"/>
                </mxCell>
                <mxCell id="IOKurdRcrIk726-1JUdn-9" value="Storage &lt;br&gt;Gateway" style="outlineConnect=0;dashed=0;verticalLabelPosition=bottom;verticalAlign=top;align=center;html=1;shape=mxgraph.aws3.storage_gateway;fillColor=#E05243;gradientColor=none;fontColor=#999999;" parent="IOKurdRcrIk726-1JUdn-1" vertex="1">
                    <mxGeometry x="120" y="80" width="40" height="50" as="geometry"/>
                </mxCell>
                <mxCell id="IOKurdRcrIk726-1JUdn-13" value="VPN接続" style="outlineConnect=0;dashed=0;verticalLabelPosition=bottom;verticalAlign=top;align=center;html=1;shape=mxgraph.aws3.vpn_connection;fillColor=#F58534;gradientColor=none;fontColor=#999999;" parent="IOKurdRcrIk726-1JUdn-1" vertex="1">
                    <mxGeometry x="220" y="81" width="58.5" height="50" as="geometry"/>
                </mxCell>
                <mxCell id="IOKurdRcrIk726-1JUdn-12" value="Direct&lt;br&gt;Connect" style="outlineConnect=0;dashed=0;verticalLabelPosition=bottom;verticalAlign=top;align=center;html=1;shape=mxgraph.aws3.direct_connect;fillColor=#F58536;gradientColor=none;fontColor=#999999;" parent="IOKurdRcrIk726-1JUdn-1" vertex="1">
                    <mxGeometry x="310" y="81" width="40" height="50" as="geometry"/>
                </mxCell>
                <mxCell id="IOKurdRcrIk726-1JUdn-16" value="&lt;font color=&quot;#999999&quot;&gt;S3&lt;/font&gt;" style="points=[[0,0,0],[0.25,0,0],[0.5,0,0],[0.75,0,0],[1,0,0],[0,1,0],[0.25,1,0],[0.5,1,0],[0.75,1,0],[1,1,0],[0,0.25,0],[0,0.5,0],[0,0.75,0],[1,0.25,0],[1,0.5,0],[1,0.75,0]];outlineConnect=0;fontColor=#232F3E;gradientColor=#60A337;gradientDirection=north;fillColor=#277116;strokeColor=#ffffff;dashed=0;verticalLabelPosition=bottom;verticalAlign=top;align=center;html=1;fontSize=12;fontStyle=0;aspect=fixed;shape=mxgraph.aws4.resourceIcon;resIcon=mxgraph.aws4.s3;" parent="IOKurdRcrIk726-1JUdn-1" vertex="1">
                    <mxGeometry x="414" y="81" width="50" height="50" as="geometry"/>
                </mxCell>
                <mxCell id="IOKurdRcrIk726-1JUdn-22" value="" style="rounded=1;arcSize=10;dashed=0;fillColor=none;gradientColor=none;strokeWidth=2;fontColor=#999999;" parent="IOKurdRcrIk726-1JUdn-1" vertex="1">
                    <mxGeometry x="10" y="270" width="390" height="170" as="geometry"/>
                </mxCell>
                <mxCell id="IOKurdRcrIk726-1JUdn-23" value="" style="dashed=0;html=1;shape=mxgraph.aws3.cloud;fillColor=#F58536;gradientColor=none;dashed=0;fontColor=#999999;" parent="IOKurdRcrIk726-1JUdn-1" vertex="1">
                    <mxGeometry x="30" y="250" width="52" height="36" as="geometry"/>
                </mxCell>
                <mxCell id="IOKurdRcrIk726-1JUdn-28" style="edgeStyle=orthogonalEdgeStyle;rounded=0;orthogonalLoop=1;jettySize=auto;html=1;fontColor=#999999;" parent="IOKurdRcrIk726-1JUdn-1" source="IOKurdRcrIk726-1JUdn-24" target="IOKurdRcrIk726-1JUdn-27" edge="1">
                    <mxGeometry relative="1" as="geometry"/>
                </mxCell>
                <mxCell id="IOKurdRcrIk726-1JUdn-24" value="EC2" style="outlineConnect=0;dashed=0;verticalLabelPosition=bottom;verticalAlign=top;align=center;html=1;shape=mxgraph.aws3.ec2;fillColor=#F58534;gradientColor=none;fontColor=#999999;" parent="IOKurdRcrIk726-1JUdn-1" vertex="1">
                    <mxGeometry x="42.5" y="320" width="42" height="50" as="geometry"/>
                </mxCell>
                <mxCell id="IOKurdRcrIk726-1JUdn-25" value="Storage &lt;br&gt;Gateway" style="outlineConnect=0;dashed=0;verticalLabelPosition=bottom;verticalAlign=top;align=center;html=1;shape=mxgraph.aws3.storage_gateway;fillColor=#E05243;gradientColor=none;fontColor=#999999;" parent="IOKurdRcrIk726-1JUdn-1" vertex="1">
                    <mxGeometry x="120" y="320" width="40" height="50" as="geometry"/>
                </mxCell>
                <mxCell id="IOKurdRcrIk726-1JUdn-26" value="&lt;font color=&quot;#999999&quot;&gt;S3&lt;/font&gt;" style="points=[[0,0,0],[0.25,0,0],[0.5,0,0],[0.75,0,0],[1,0,0],[0,1,0],[0.25,1,0],[0.5,1,0],[0.75,1,0],[1,1,0],[0,0.25,0],[0,0.5,0],[0,0.75,0],[1,0.25,0],[1,0.5,0],[1,0.75,0]];outlineConnect=0;fontColor=#232F3E;gradientColor=#60A337;gradientDirection=north;fillColor=#277116;strokeColor=#ffffff;dashed=0;verticalLabelPosition=bottom;verticalAlign=top;align=center;html=1;fontSize=12;fontStyle=0;aspect=fixed;shape=mxgraph.aws4.resourceIcon;resIcon=mxgraph.aws4.s3;" parent="IOKurdRcrIk726-1JUdn-1" vertex="1">
                    <mxGeometry x="240" y="320" width="50" height="50" as="geometry"/>
                </mxCell>
                <mxCell id="IOKurdRcrIk726-1JUdn-27" value="&lt;font color=&quot;#999999&quot;&gt;S3 Glacier&lt;/font&gt;" style="points=[[0,0,0],[0.25,0,0],[0.5,0,0],[0.75,0,0],[1,0,0],[0,1,0],[0.25,1,0],[0.5,1,0],[0.75,1,0],[1,1,0],[0,0.25,0],[0,0.5,0],[0,0.75,0],[1,0.25,0],[1,0.5,0],[1,0.75,0]];outlineConnect=0;fontColor=#232F3E;gradientColor=#60A337;gradientDirection=north;fillColor=#277116;strokeColor=#ffffff;dashed=0;verticalLabelPosition=bottom;verticalAlign=top;align=center;html=1;fontSize=12;fontStyle=0;aspect=fixed;shape=mxgraph.aws4.resourceIcon;resIcon=mxgraph.aws4.glacier;" parent="IOKurdRcrIk726-1JUdn-1" vertex="1">
                    <mxGeometry x="320" y="321" width="48" height="48" as="geometry"/>
                </mxCell>
                <mxCell id="IOKurdRcrIk726-1JUdn-29" value="❏ AWS配置" style="text;html=1;strokeColor=none;fillColor=none;align=center;verticalAlign=middle;whiteSpace=wrap;rounded=0;fontColor=#999999;" parent="IOKurdRcrIk726-1JUdn-1" vertex="1">
                    <mxGeometry y="450" width="90" height="20" as="geometry"/>
                </mxCell>
                <mxCell id="IOKurdRcrIk726-1JUdn-30" value="❏ オンプレミス配置" style="text;html=1;strokeColor=none;fillColor=none;align=center;verticalAlign=middle;whiteSpace=wrap;rounded=0;fontColor=#999999;" parent="IOKurdRcrIk726-1JUdn-1" vertex="1">
                    <mxGeometry y="210" width="120" height="20" as="geometry"/>
                </mxCell>
            </root>
        </mxGraphModel>
    </diagram>
    <diagram id="18Yam5CqPNlsGFHrWVM9" name="EFSの構成要素">
        &#xa;
        <mxGraphModel dx="1360" dy="830" grid="1" gridSize="10" guides="1" tooltips="1" connect="1" arrows="1" fold="1" page="1" pageScale="1" pageWidth="827" pageHeight="1169" math="0" shadow="0">
            &#xa;
            <root>
                &#xa;
                <mxCell id="-505NrgO73npUM62k7Go-0"/>
                &#xa;
                <mxCell id="-505NrgO73npUM62k7Go-1" parent="-505NrgO73npUM62k7Go-0"/>
                &#xa;
                <mxCell id="oRA-MB3M90CwGi-FHDS5-10" value="ファイルシステム" style="rounded=0;whiteSpace=wrap;html=1;fillColor=none;verticalAlign=top;fontColor=#999999;" parent="-505NrgO73npUM62k7Go-1" vertex="1">
                    &#xa;
                    <mxGeometry x="420" y="60" width="120" height="410" as="geometry"/>
                    &#xa;
                </mxCell>
                &#xa;
                <mxCell id="oRA-MB3M90CwGi-FHDS5-4" value="" style="rounded=0;whiteSpace=wrap;html=1;fillColor=none;" parent="-505NrgO73npUM62k7Go-1" vertex="1">
                    &#xa;
                    <mxGeometry x="170" y="50" width="420" height="440" as="geometry"/>
                    &#xa;
                </mxCell>
                &#xa;
                <mxCell id="-505NrgO73npUM62k7Go-2" value="Region" style="outlineConnect=0;gradientColor=none;html=1;whiteSpace=wrap;fontSize=12;fontStyle=0;shape=mxgraph.aws4.group;grIcon=mxgraph.aws4.group_region;strokeColor=#B6BABF;fillColor=none;verticalAlign=top;align=left;spacingLeft=30;fontColor=#B6BABF;dashed=1;" parent="-505NrgO73npUM62k7Go-1" vertex="1">
                    &#xa;
                    <mxGeometry x="10" y="10" width="630" height="490" as="geometry"/>
                    &#xa;
                </mxCell>
                &#xa;
                <mxCell id="-505NrgO73npUM62k7Go-3" value="Availability zone" style="outlineConnect=0;gradientColor=none;html=1;whiteSpace=wrap;fontSize=12;fontStyle=0;shape=mxgraph.aws4.group;grIcon=mxgraph.aws4.group_availability_zone;strokeColor=#E8E8E8;fillColor=none;verticalAlign=top;align=left;spacingLeft=30;fontColor=#E8E8E8;dashed=1;" parent="-505NrgO73npUM62k7Go-1" vertex="1">
                    &#xa;
                    <mxGeometry x="20" y="40" width="600" height="140" as="geometry"/>
                    &#xa;
                </mxCell>
                &#xa;
                <mxCell id="oRA-MB3M90CwGi-FHDS5-13" style="edgeStyle=orthogonalEdgeStyle;rounded=0;orthogonalLoop=1;jettySize=auto;html=1;entryX=0;entryY=0.5;entryDx=0;entryDy=0;entryPerimeter=0;fontColor=#999999;" parent="-505NrgO73npUM62k7Go-1" source="-505NrgO73npUM62k7Go-4" target="oRA-MB3M90CwGi-FHDS5-3" edge="1">
                    &#xa;
                    <mxGeometry relative="1" as="geometry"/>
                    &#xa;
                </mxCell>
                &#xa;
                <mxCell id="-505NrgO73npUM62k7Go-4" value="&lt;font color=&quot;#999999&quot;&gt;EC2&lt;/font&gt;" style="outlineConnect=0;dashed=0;verticalLabelPosition=bottom;verticalAlign=top;align=center;html=1;shape=mxgraph.aws3.ec2;fillColor=#F58534;gradientColor=none;" parent="-505NrgO73npUM62k7Go-1" vertex="1">
                    &#xa;
                    <mxGeometry x="40" y="100" width="50" height="60" as="geometry"/>
                    &#xa;
                </mxCell>
                &#xa;
                <mxCell id="oRA-MB3M90CwGi-FHDS5-0" value="&lt;font color=&quot;#999999&quot;&gt;マウンタターゲット&lt;/font&gt;" style="outlineConnect=0;fontColor=#232F3E;gradientColor=none;fillColor=#C7131F;strokeColor=none;dashed=0;verticalLabelPosition=bottom;verticalAlign=top;align=center;html=1;fontSize=12;fontStyle=0;aspect=fixed;shape=mxgraph.aws4.endpoint;" parent="-505NrgO73npUM62k7Go-1" vertex="1">
                    &#xa;
                    <mxGeometry x="320" y="98" width="60" height="60" as="geometry"/>
                    &#xa;
                </mxCell>
                &#xa;
                <mxCell id="oRA-MB3M90CwGi-FHDS5-3" value="" style="whiteSpace=wrap;html=1;shape=mxgraph.basic.document" parent="-505NrgO73npUM62k7Go-1" vertex="1">
                    &#xa;
                    <mxGeometry x="450" y="95" width="60" height="70" as="geometry"/>
                    &#xa;
                </mxCell>
                &#xa;
                <mxCell id="-505NrgO73npUM62k7Go-6" value="&lt;font color=&quot;#999999&quot;&gt;EFS&lt;/font&gt;" style="outlineConnect=0;dashed=0;verticalLabelPosition=bottom;verticalAlign=top;align=center;html=1;shape=mxgraph.aws3.efs;fillColor=#E05243;gradientColor=none;" parent="-505NrgO73npUM62k7Go-1" vertex="1">
                    &#xa;
                    <mxGeometry x="140" y="30" width="60" height="65" as="geometry"/>
                    &#xa;
                </mxCell>
                &#xa;
                <mxCell id="oRA-MB3M90CwGi-FHDS5-5" value="セキュリティグループ" style="rounded=1;arcSize=10;dashed=1;strokeColor=#ff0000;fillColor=none;gradientColor=none;dashPattern=8 4;strokeWidth=2;verticalAlign=top;fontColor=#999999;" parent="-505NrgO73npUM62k7Go-1" vertex="1">
                    &#xa;
                    <mxGeometry x="290" y="60" width="120" height="410" as="geometry"/>
                    &#xa;
                </mxCell>
                &#xa;
                <mxCell id="-505NrgO73npUM62k7Go-8" value="ターゲット&lt;br&gt;FQDN" style="rounded=0;whiteSpace=wrap;html=1;fillColor=none;fontColor=#999999;verticalAlign=top;" parent="-505NrgO73npUM62k7Go-1" vertex="1">
                    &#xa;
                    <mxGeometry x="210" y="60" width="70" height="410" as="geometry"/>
                    &#xa;
                </mxCell>
                &#xa;
                <mxCell id="oRA-MB3M90CwGi-FHDS5-14" value="Availability zone" style="outlineConnect=0;gradientColor=none;html=1;whiteSpace=wrap;fontSize=12;fontStyle=0;shape=mxgraph.aws4.group;grIcon=mxgraph.aws4.group_availability_zone;strokeColor=#E8E8E8;fillColor=none;verticalAlign=top;align=left;spacingLeft=30;fontColor=#E8E8E8;dashed=1;" parent="-505NrgO73npUM62k7Go-1" vertex="1">
                    &#xa;
                    <mxGeometry x="20" y="190" width="600" height="140" as="geometry"/>
                    &#xa;
                </mxCell>
                &#xa;
                <mxCell id="oRA-MB3M90CwGi-FHDS5-15" style="edgeStyle=orthogonalEdgeStyle;rounded=0;orthogonalLoop=1;jettySize=auto;html=1;entryX=0;entryY=0.5;entryDx=0;entryDy=0;entryPerimeter=0;fontColor=#999999;" parent="-505NrgO73npUM62k7Go-1" source="oRA-MB3M90CwGi-FHDS5-16" target="oRA-MB3M90CwGi-FHDS5-18" edge="1">
                    &#xa;
                    <mxGeometry relative="1" as="geometry">
                        &#xa;
                        <Array as="points">
                            &#xa;
                            <mxPoint x="470" y="255"/>
                            &#xa;
                            <mxPoint x="470" y="260"/>
                            &#xa;
                        </Array>
                        &#xa;
                    </mxGeometry>
                    &#xa;
                </mxCell>
                &#xa;
                <mxCell id="oRA-MB3M90CwGi-FHDS5-16" value="&lt;font color=&quot;#999999&quot;&gt;EC2&lt;/font&gt;" style="outlineConnect=0;dashed=0;verticalLabelPosition=bottom;verticalAlign=top;align=center;html=1;shape=mxgraph.aws3.ec2;fillColor=#F58534;gradientColor=none;" parent="-505NrgO73npUM62k7Go-1" vertex="1">
                    &#xa;
                    <mxGeometry x="40" y="225" width="50" height="60" as="geometry"/>
                    &#xa;
                </mxCell>
                &#xa;
                <mxCell id="oRA-MB3M90CwGi-FHDS5-17" value="&lt;font color=&quot;#999999&quot;&gt;マウンタターゲット&lt;/font&gt;" style="outlineConnect=0;fontColor=#232F3E;gradientColor=none;fillColor=#C7131F;strokeColor=none;dashed=0;verticalLabelPosition=bottom;verticalAlign=top;align=center;html=1;fontSize=12;fontStyle=0;aspect=fixed;shape=mxgraph.aws4.endpoint;" parent="-505NrgO73npUM62k7Go-1" vertex="1">
                    &#xa;
                    <mxGeometry x="320" y="225" width="60" height="60" as="geometry"/>
                    &#xa;
                </mxCell>
                &#xa;
                <mxCell id="oRA-MB3M90CwGi-FHDS5-18" value="" style="whiteSpace=wrap;html=1;shape=mxgraph.basic.document" parent="-505NrgO73npUM62k7Go-1" vertex="1">
                    &#xa;
                    <mxGeometry x="460" y="225" width="60" height="70" as="geometry"/>
                    &#xa;
                </mxCell>
                &#xa;
                <mxCell id="oRA-MB3M90CwGi-FHDS5-19" value="Availability zone" style="outlineConnect=0;gradientColor=none;html=1;whiteSpace=wrap;fontSize=12;fontStyle=0;shape=mxgraph.aws4.group;grIcon=mxgraph.aws4.group_availability_zone;strokeColor=#E8E8E8;fillColor=none;verticalAlign=top;align=left;spacingLeft=30;fontColor=#E8E8E8;dashed=1;" parent="-505NrgO73npUM62k7Go-1" vertex="1">
                    &#xa;
                    <mxGeometry x="20" y="338" width="600" height="140" as="geometry"/>
                    &#xa;
                </mxCell>
                &#xa;
                <mxCell id="oRA-MB3M90CwGi-FHDS5-20" style="edgeStyle=orthogonalEdgeStyle;rounded=0;orthogonalLoop=1;jettySize=auto;html=1;entryX=0;entryY=0.5;entryDx=0;entryDy=0;entryPerimeter=0;fontColor=#999999;" parent="-505NrgO73npUM62k7Go-1" source="oRA-MB3M90CwGi-FHDS5-21" target="oRA-MB3M90CwGi-FHDS5-23" edge="1">
                    &#xa;
                    <mxGeometry relative="1" as="geometry">
                        &#xa;
                        <Array as="points">
                            &#xa;
                            <mxPoint x="460" y="405"/>
                            &#xa;
                            <mxPoint x="460" y="408"/>
                            &#xa;
                        </Array>
                        &#xa;
                    </mxGeometry>
                    &#xa;
                </mxCell>
                &#xa;
                <mxCell id="oRA-MB3M90CwGi-FHDS5-21" value="&lt;font color=&quot;#999999&quot;&gt;EC2&lt;/font&gt;" style="outlineConnect=0;dashed=0;verticalLabelPosition=bottom;verticalAlign=top;align=center;html=1;shape=mxgraph.aws3.ec2;fillColor=#F58534;gradientColor=none;" parent="-505NrgO73npUM62k7Go-1" vertex="1">
                    &#xa;
                    <mxGeometry x="40" y="375" width="50" height="60" as="geometry"/>
                    &#xa;
                </mxCell>
                &#xa;
                <mxCell id="oRA-MB3M90CwGi-FHDS5-22" value="&lt;font color=&quot;#999999&quot;&gt;マウンタターゲット&lt;/font&gt;" style="outlineConnect=0;fontColor=#232F3E;gradientColor=none;fillColor=#C7131F;strokeColor=none;dashed=0;verticalLabelPosition=bottom;verticalAlign=top;align=center;html=1;fontSize=12;fontStyle=0;aspect=fixed;shape=mxgraph.aws4.endpoint;" parent="-505NrgO73npUM62k7Go-1" vertex="1">
                    &#xa;
                    <mxGeometry x="320" y="375" width="60" height="60" as="geometry"/>
                    &#xa;
                </mxCell>
                &#xa;
                <mxCell id="oRA-MB3M90CwGi-FHDS5-23" value="" style="whiteSpace=wrap;html=1;shape=mxgraph.basic.document" parent="-505NrgO73npUM62k7Go-1" vertex="1">
                    &#xa;
                    <mxGeometry x="450" y="373" width="60" height="70" as="geometry"/>
                    &#xa;
                </mxCell>
                &#xa;
            </root>
            &#xa;
        </mxGraphModel>
        &#xa;
    </diagram>
    <diagram id="dI7genf-TWRrX6Eq--JQ" name="EBS">
        &#xa;        &#xa;&#xa;
        <mxGraphModel dx="1422" dy="830" grid="1" gridSize="10" guides="1" tooltips="1" connect="1" arrows="1" fold="1" page="1" pageScale="1" pageWidth="827" pageHeight="1169" math="0" shadow="0">
            &#xa;            &#xa;&#xa;
            <root>
                &#xa;                &#xa;&#xa;
                <mxCell id="-TOKuqePsQWuJ8zjLpDi-0"/>
                &#xa;                &#xa;&#xa;
                <mxCell id="-TOKuqePsQWuJ8zjLpDi-1" parent="-TOKuqePsQWuJ8zjLpDi-0"/>
                &#xa;                &#xa;&#xa;
                <mxCell id="-TOKuqePsQWuJ8zjLpDi-17" value="Region" style="outlineConnect=0;gradientColor=none;html=1;whiteSpace=wrap;fontSize=12;fontStyle=0;shape=mxgraph.aws4.group;grIcon=mxgraph.aws4.group_region;strokeColor=#B6BABF;fillColor=none;verticalAlign=top;align=left;spacingLeft=30;fontColor=#B6BABF;dashed=1;" parent="-TOKuqePsQWuJ8zjLpDi-1" vertex="1">
                    &#xa;                    &#xa;&#xa;
                    <mxGeometry x="250" y="10" width="210" height="370" as="geometry"/>
                    &#xa;                    &#xa;&#xa;
                </mxCell>
                &#xa;                &#xa;&#xa;
                <mxCell id="-TOKuqePsQWuJ8zjLpDi-19" value="Availability zone" style="outlineConnect=0;gradientColor=none;html=1;whiteSpace=wrap;fontSize=12;fontStyle=0;shape=mxgraph.aws4.group;grIcon=mxgraph.aws4.group_availability_zone;fillColor=none;verticalAlign=top;align=left;spacingLeft=30;fontColor=#545B64;dashed=1;strokeColor=#999999;" parent="-TOKuqePsQWuJ8zjLpDi-1" vertex="1">
                    &#xa;                    &#xa;&#xa;
                    <mxGeometry x="360" y="40" width="90" height="240" as="geometry"/>
                    &#xa;                    &#xa;&#xa;
                </mxCell>
                &#xa;                &#xa;&#xa;
                <mxCell id="-TOKuqePsQWuJ8zjLpDi-2" value="Region" style="outlineConnect=0;gradientColor=none;html=1;whiteSpace=wrap;fontSize=12;fontStyle=0;shape=mxgraph.aws4.group;grIcon=mxgraph.aws4.group_region;strokeColor=#B6BABF;fillColor=none;verticalAlign=top;align=left;spacingLeft=30;fontColor=#B6BABF;dashed=1;" parent="-TOKuqePsQWuJ8zjLpDi-1" vertex="1">
                    &#xa;                    &#xa;&#xa;
                    <mxGeometry x="20" y="10" width="210" height="280" as="geometry"/>
                    &#xa;                    &#xa;&#xa;
                </mxCell>
                &#xa;                &#xa;&#xa;
                <mxCell id="-TOKuqePsQWuJ8zjLpDi-11" value="Availability zone" style="outlineConnect=0;gradientColor=none;html=1;whiteSpace=wrap;fontSize=12;fontStyle=0;shape=mxgraph.aws4.group;grIcon=mxgraph.aws4.group_availability_zone;fillColor=none;verticalAlign=top;align=left;spacingLeft=30;fontColor=#545B64;dashed=1;strokeColor=#999999;" parent="-TOKuqePsQWuJ8zjLpDi-1" vertex="1">
                    &#xa;                    &#xa;&#xa;
                    <mxGeometry x="30" y="40" width="90" height="240" as="geometry"/>
                    &#xa;                    &#xa;&#xa;
                </mxCell>
                &#xa;                &#xa;&#xa;
                <mxCell id="-TOKuqePsQWuJ8zjLpDi-12" value="Availability zone" style="outlineConnect=0;gradientColor=none;html=1;whiteSpace=wrap;fontSize=12;fontStyle=0;shape=mxgraph.aws4.group;grIcon=mxgraph.aws4.group_availability_zone;fillColor=none;verticalAlign=top;align=left;spacingLeft=30;fontColor=#545B64;dashed=1;strokeColor=#999999;" parent="-TOKuqePsQWuJ8zjLpDi-1" vertex="1">
                    &#xa;                    &#xa;&#xa;
                    <mxGeometry x="130" y="40" width="90" height="240" as="geometry"/>
                    &#xa;                    &#xa;&#xa;
                </mxCell>
                &#xa;                &#xa;&#xa;
                <mxCell id="-TOKuqePsQWuJ8zjLpDi-13" value="〇" style="edgeStyle=orthogonalEdgeStyle;rounded=0;orthogonalLoop=1;jettySize=auto;html=1;fontColor=#999999;" parent="-TOKuqePsQWuJ8zjLpDi-1" source="-TOKuqePsQWuJ8zjLpDi-3" target="-TOKuqePsQWuJ8zjLpDi-9" edge="1">
                    &#xa;                    &#xa;&#xa;
                    <mxGeometry relative="1" as="geometry"/>
                    &#xa;                    &#xa;&#xa;
                </mxCell>
                &#xa;                &#xa;&#xa;
                <mxCell id="-TOKuqePsQWuJ8zjLpDi-3" value="&lt;font color=&quot;#999999&quot;&gt;EC2&lt;/font&gt;" style="outlineConnect=0;dashed=0;verticalLabelPosition=bottom;verticalAlign=top;align=center;html=1;shape=mxgraph.aws3.ec2;fillColor=#F58534;gradientColor=none;" parent="-TOKuqePsQWuJ8zjLpDi-1" vertex="1">
                    &#xa;                    &#xa;&#xa;
                    <mxGeometry x="50" y="80" width="50" height="60" as="geometry"/>
                    &#xa;                    &#xa;&#xa;
                </mxCell>
                &#xa;                &#xa;&#xa;
                <mxCell id="-TOKuqePsQWuJ8zjLpDi-16" value="✕" style="edgeStyle=orthogonalEdgeStyle;rounded=0;orthogonalLoop=1;jettySize=auto;html=1;entryX=0.75;entryY=0;entryDx=0;entryDy=0;entryPerimeter=0;fontColor=#999999;" parent="-TOKuqePsQWuJ8zjLpDi-1" source="-TOKuqePsQWuJ8zjLpDi-4" target="-TOKuqePsQWuJ8zjLpDi-9" edge="1">
                    &#xa;                    &#xa;&#xa;
                    <mxGeometry relative="1" as="geometry">
                        &#xa;                        &#xa;&#xa;
                        <Array as="points">
                            &#xa;                            &#xa;&#xa;
                            <mxPoint x="175" y="170"/>
                            &#xa;                            &#xa;&#xa;
                            <mxPoint x="90" y="170"/>
                            &#xa;                            &#xa;&#xa;
                        </Array>
                        &#xa;                        &#xa;&#xa;
                    </mxGeometry>
                    &#xa;                    &#xa;&#xa;
                </mxCell>
                &#xa;                &#xa;&#xa;
                <mxCell id="-TOKuqePsQWuJ8zjLpDi-4" value="&lt;font color=&quot;#999999&quot;&gt;EC2&lt;/font&gt;" style="outlineConnect=0;dashed=0;verticalLabelPosition=bottom;verticalAlign=top;align=center;html=1;shape=mxgraph.aws3.ec2;fillColor=#F58534;gradientColor=none;" parent="-TOKuqePsQWuJ8zjLpDi-1" vertex="1">
                    &#xa;                    &#xa;&#xa;
                    <mxGeometry x="150" y="80" width="50" height="60" as="geometry"/>
                    &#xa;                    &#xa;&#xa;
                </mxCell>
                &#xa;                &#xa;&#xa;
                <mxCell id="-TOKuqePsQWuJ8zjLpDi-8" value="&lt;font color=&quot;#999999&quot;&gt;EBS&lt;/font&gt;" style="points=[[0,0,0],[0.25,0,0],[0.5,0,0],[0.75,0,0],[1,0,0],[0,1,0],[0.25,1,0],[0.5,1,0],[0.75,1,0],[1,1,0],[0,0.25,0],[0,0.5,0],[0,0.75,0],[1,0.25,0],[1,0.5,0],[1,0.75,0]];outlineConnect=0;fontColor=#232F3E;gradientColor=#60A337;gradientDirection=north;fillColor=#277116;strokeColor=#ffffff;dashed=0;verticalLabelPosition=bottom;verticalAlign=top;align=center;html=1;fontSize=12;fontStyle=0;aspect=fixed;shape=mxgraph.aws4.resourceIcon;resIcon=mxgraph.aws4.elastic_block_store;" parent="-TOKuqePsQWuJ8zjLpDi-1" vertex="1">
                    &#xa;                    &#xa;&#xa;
                    <mxGeometry x="375" y="190" width="60" height="60" as="geometry"/>
                    &#xa;                    &#xa;&#xa;
                </mxCell>
                &#xa;                &#xa;&#xa;
                <mxCell id="-TOKuqePsQWuJ8zjLpDi-9" value="&lt;font color=&quot;#999999&quot;&gt;EBS&lt;/font&gt;" style="points=[[0,0,0],[0.25,0,0],[0.5,0,0],[0.75,0,0],[1,0,0],[0,1,0],[0.25,1,0],[0.5,1,0],[0.75,1,0],[1,1,0],[0,0.25,0],[0,0.5,0],[0,0.75,0],[1,0.25,0],[1,0.5,0],[1,0.75,0]];outlineConnect=0;fontColor=#232F3E;gradientColor=#60A337;gradientDirection=north;fillColor=#277116;strokeColor=#ffffff;dashed=0;verticalLabelPosition=bottom;verticalAlign=top;align=center;html=1;fontSize=12;fontStyle=0;aspect=fixed;shape=mxgraph.aws4.resourceIcon;resIcon=mxgraph.aws4.elastic_block_store;" parent="-TOKuqePsQWuJ8zjLpDi-1" vertex="1">
                    &#xa;                    &#xa;&#xa;
                    <mxGeometry x="45" y="190" width="60" height="60" as="geometry"/>
                    &#xa;                    &#xa;&#xa;
                </mxCell>
                &#xa;                &#xa;&#xa;
                <mxCell id="-TOKuqePsQWuJ8zjLpDi-34" style="edgeStyle=orthogonalEdgeStyle;rounded=0;orthogonalLoop=1;jettySize=auto;html=1;exitX=1;exitY=0.5;exitDx=0;exitDy=0;exitPerimeter=0;" parent="-TOKuqePsQWuJ8zjLpDi-1" source="-TOKuqePsQWuJ8zjLpDi-10" target="-TOKuqePsQWuJ8zjLpDi-8" edge="1">
                    &#xa;                    &#xa;&#xa;
                    <mxGeometry relative="1" as="geometry"/>
                    &#xa;                    &#xa;&#xa;
                </mxCell>
                &#xa;                &#xa;&#xa;
                <mxCell id="-TOKuqePsQWuJ8zjLpDi-10" value="&lt;font color=&quot;#999999&quot;&gt;スナップショット&lt;/font&gt;" style="points=[[0,0,0],[0.25,0,0],[0.5,0,0],[0.75,0,0],[1,0,0],[0,1,0],[0.25,1,0],[0.5,1,0],[0.75,1,0],[1,1,0],[0,0.25,0],[0,0.5,0],[0,0.75,0],[1,0.25,0],[1,0.5,0],[1,0.75,0]];outlineConnect=0;fontColor=#232F3E;gradientColor=#60A337;gradientDirection=north;fillColor=#277116;strokeColor=#ffffff;dashed=0;verticalLabelPosition=bottom;verticalAlign=top;align=center;html=1;fontSize=12;fontStyle=0;aspect=fixed;shape=mxgraph.aws4.resourceIcon;resIcon=mxgraph.aws4.s3;" parent="-TOKuqePsQWuJ8zjLpDi-1" vertex="1">
                    &#xa;                    &#xa;&#xa;
                    <mxGeometry x="325" y="290" width="60" height="60" as="geometry"/>
                    &#xa;                    &#xa;&#xa;
                </mxCell>
                &#xa;                &#xa;&#xa;
                <mxCell id="-TOKuqePsQWuJ8zjLpDi-18" value="Availability zone" style="outlineConnect=0;gradientColor=none;html=1;whiteSpace=wrap;fontSize=12;fontStyle=0;shape=mxgraph.aws4.group;grIcon=mxgraph.aws4.group_availability_zone;fillColor=none;verticalAlign=top;align=left;spacingLeft=30;fontColor=#545B64;dashed=1;strokeColor=#999999;" parent="-TOKuqePsQWuJ8zjLpDi-1" vertex="1">
                    &#xa;                    &#xa;&#xa;
                    <mxGeometry x="260" y="40" width="90" height="240" as="geometry"/>
                    &#xa;                    &#xa;&#xa;
                </mxCell>
                &#xa;                &#xa;&#xa;
                <mxCell id="-TOKuqePsQWuJ8zjLpDi-22" value="✕" style="edgeStyle=orthogonalEdgeStyle;rounded=0;orthogonalLoop=1;jettySize=auto;html=1;entryX=0.75;entryY=0;entryDx=0;entryDy=0;entryPerimeter=0;" parent="-TOKuqePsQWuJ8zjLpDi-1" source="-TOKuqePsQWuJ8zjLpDi-23" target="-TOKuqePsQWuJ8zjLpDi-24" edge="1">
                    &#xa;                    &#xa;&#xa;
                    <mxGeometry relative="1" as="geometry">
                        &#xa;                        &#xa;&#xa;
                        <Array as="points">
                            &#xa;                            &#xa;&#xa;
                            <mxPoint x="405" y="170"/>
                            &#xa;                            &#xa;&#xa;
                            <mxPoint x="320" y="170"/>
                            &#xa;                            &#xa;&#xa;
                        </Array>
                        &#xa;                        &#xa;&#xa;
                    </mxGeometry>
                    &#xa;                    &#xa;&#xa;
                </mxCell>
                &#xa;                &#xa;&#xa;
                <mxCell id="-TOKuqePsQWuJ8zjLpDi-30" style="edgeStyle=orthogonalEdgeStyle;rounded=0;orthogonalLoop=1;jettySize=auto;html=1;entryX=0.5;entryY=0;entryDx=0;entryDy=0;entryPerimeter=0;" parent="-TOKuqePsQWuJ8zjLpDi-1" source="-TOKuqePsQWuJ8zjLpDi-23" target="-TOKuqePsQWuJ8zjLpDi-8" edge="1">
                    &#xa;                    &#xa;&#xa;
                    <mxGeometry relative="1" as="geometry"/>
                    &#xa;                    &#xa;&#xa;
                </mxCell>
                &#xa;                &#xa;&#xa;
                <mxCell id="-TOKuqePsQWuJ8zjLpDi-23" value="&lt;font color=&quot;#999999&quot;&gt;EC2&lt;/font&gt;" style="outlineConnect=0;dashed=0;verticalLabelPosition=bottom;verticalAlign=top;align=center;html=1;shape=mxgraph.aws3.ec2;fillColor=#F58534;gradientColor=none;" parent="-TOKuqePsQWuJ8zjLpDi-1" vertex="1">
                    &#xa;                    &#xa;&#xa;
                    <mxGeometry x="380" y="80" width="50" height="60" as="geometry"/>
                    &#xa;                    &#xa;&#xa;
                </mxCell>
                &#xa;                &#xa;&#xa;
                <mxCell id="-TOKuqePsQWuJ8zjLpDi-32" style="edgeStyle=orthogonalEdgeStyle;rounded=0;orthogonalLoop=1;jettySize=auto;html=1;entryX=0;entryY=0.5;entryDx=0;entryDy=0;entryPerimeter=0;" parent="-TOKuqePsQWuJ8zjLpDi-1" source="-TOKuqePsQWuJ8zjLpDi-24" target="-TOKuqePsQWuJ8zjLpDi-10" edge="1">
                    &#xa;                    &#xa;&#xa;
                    <mxGeometry relative="1" as="geometry"/>
                    &#xa;                    &#xa;&#xa;
                </mxCell>
                &#xa;                &#xa;&#xa;
                <mxCell id="-TOKuqePsQWuJ8zjLpDi-24" value="&lt;font color=&quot;#999999&quot;&gt;EBS&lt;/font&gt;" style="points=[[0,0,0],[0.25,0,0],[0.5,0,0],[0.75,0,0],[1,0,0],[0,1,0],[0.25,1,0],[0.5,1,0],[0.75,1,0],[1,1,0],[0,0.25,0],[0,0.5,0],[0,0.75,0],[1,0.25,0],[1,0.5,0],[1,0.75,0]];outlineConnect=0;fontColor=#232F3E;gradientColor=#60A337;gradientDirection=north;fillColor=#277116;strokeColor=#ffffff;dashed=0;verticalLabelPosition=bottom;verticalAlign=top;align=center;html=1;fontSize=12;fontStyle=0;aspect=fixed;shape=mxgraph.aws4.resourceIcon;resIcon=mxgraph.aws4.elastic_block_store;" parent="-TOKuqePsQWuJ8zjLpDi-1" vertex="1">
                    &#xa;                    &#xa;&#xa;
                    <mxGeometry x="275" y="190" width="60" height="60" as="geometry"/>
                    &#xa;                    &#xa;&#xa;
                </mxCell>
                &#xa;                &#xa;&#xa;
                <mxCell id="-TOKuqePsQWuJ8zjLpDi-37" value="①スナップショットの作成" style="text;html=1;strokeColor=none;fillColor=none;align=center;verticalAlign=middle;whiteSpace=wrap;rounded=0;fontColor=#999999;" parent="-TOKuqePsQWuJ8zjLpDi-1" vertex="1">
                    &#xa;                    &#xa;&#xa;
                    <mxGeometry x="210" y="300" width="120" height="20" as="geometry"/>
                    &#xa;                    &#xa;&#xa;
                </mxCell>
                &#xa;                &#xa;&#xa;
                <mxCell id="-TOKuqePsQWuJ8zjLpDi-39" value="②スナップショットからEBSボリュームを作成" style="text;html=1;strokeColor=none;fillColor=none;align=center;verticalAlign=middle;whiteSpace=wrap;rounded=0;fontColor=#999999;" parent="-TOKuqePsQWuJ8zjLpDi-1" vertex="1">
                    &#xa;                    &#xa;&#xa;
                    <mxGeometry x="385" y="300" width="140" height="20" as="geometry"/>
                    &#xa;                    &#xa;&#xa;
                </mxCell>
                &#xa;                &#xa;&#xa;
                <mxCell id="-TOKuqePsQWuJ8zjLpDi-40" value="③EC2に&lt;br&gt;アタッチ" style="text;html=1;strokeColor=none;fillColor=none;align=center;verticalAlign=middle;whiteSpace=wrap;rounded=0;fontColor=#999999;" parent="-TOKuqePsQWuJ8zjLpDi-1" vertex="1">
                    &#xa;                    &#xa;&#xa;
                    <mxGeometry x="395" y="150" width="120" height="20" as="geometry"/>
                    &#xa;                    &#xa;&#xa;
                </mxCell>
                &#xa;                &#xa;&#xa;
                <mxCell id="-TOKuqePsQWuJ8zjLpDi-44" value="〇" style="edgeStyle=orthogonalEdgeStyle;rounded=0;orthogonalLoop=1;jettySize=auto;html=1;entryX=0.5;entryY=0;entryDx=0;entryDy=0;entryPerimeter=0;fontColor=#999999;" parent="-TOKuqePsQWuJ8zjLpDi-1" source="-TOKuqePsQWuJ8zjLpDi-43" target="-TOKuqePsQWuJ8zjLpDi-24" edge="1">
                    &#xa;                    &#xa;&#xa;
                    <mxGeometry relative="1" as="geometry"/>
                    &#xa;                    &#xa;&#xa;
                </mxCell>
                &#xa;                &#xa;&#xa;
                <mxCell id="-TOKuqePsQWuJ8zjLpDi-43" value="&lt;font color=&quot;#999999&quot;&gt;EC2&lt;/font&gt;" style="outlineConnect=0;dashed=0;verticalLabelPosition=bottom;verticalAlign=top;align=center;html=1;shape=mxgraph.aws3.ec2;fillColor=#F58534;gradientColor=none;" parent="-TOKuqePsQWuJ8zjLpDi-1" vertex="1">
                    &#xa;                    &#xa;&#xa;
                    <mxGeometry x="280" y="80" width="50" height="60" as="geometry"/>
                    &#xa;                    &#xa;&#xa;
                </mxCell>
                &#xa;                &#xa;&#xa;
            </root>
            &#xa;            &#xa;&#xa;
        </mxGraphModel>
        &#xa;        &#xa;&#xa;
    </diagram>
    <diagram id="PL-W21-AdWrIs5gOPAiE" name="ECSの概要">
        &#xa;        &#xa;        &#xa;&#xa;&#xa;
        <mxGraphModel dx="1422" dy="830" grid="1" gridSize="10" guides="1" tooltips="1" connect="1" arrows="1" fold="1" page="1" pageScale="1" pageWidth="827" pageHeight="1169" math="0" shadow="0">
            &#xa;            &#xa;            &#xa;&#xa;&#xa;
            <root>
                &#xa;                &#xa;                &#xa;&#xa;&#xa;
                <mxCell id="v-Ei2orhvDABPO7XCgrF-0"/>
                &#xa;                &#xa;                &#xa;&#xa;&#xa;
                <mxCell id="v-Ei2orhvDABPO7XCgrF-1" parent="v-Ei2orhvDABPO7XCgrF-0"/>
                &#xa;                &#xa;                &#xa;&#xa;&#xa;
                <mxCell id="22" value="" style="shape=partialRectangle;whiteSpace=wrap;html=1;bottom=1;right=1;left=1;top=0;fillColor=none;routingCenterX=-0.5;strokeColor=#999999;fontColor=#999999;" parent="v-Ei2orhvDABPO7XCgrF-1" vertex="1">
                    &#xa;                    &#xa;                    &#xa;&#xa;&#xa;
                    <mxGeometry x="20" y="340" width="150" height="30" as="geometry"/>
                    &#xa;                    &#xa;                    &#xa;&#xa;&#xa;
                </mxCell>
                &#xa;                &#xa;                &#xa;&#xa;&#xa;
                <mxCell id="15" style="edgeStyle=orthogonalEdgeStyle;rounded=0;orthogonalLoop=1;jettySize=auto;html=1;fontColor=#999999;" parent="v-Ei2orhvDABPO7XCgrF-1" source="0" target="5" edge="1">
                    &#xa;                    &#xa;                    &#xa;&#xa;&#xa;
                    <mxGeometry relative="1" as="geometry">
                        &#xa;                        &#xa;                        &#xa;&#xa;&#xa;
                        <Array as="points">
                            &#xa;                            &#xa;                            &#xa;&#xa;&#xa;
                            <mxPoint x="95" y="200"/>
                            &#xa;                            &#xa;                            &#xa;&#xa;&#xa;
                            <mxPoint x="50" y="200"/>
                            &#xa;                            &#xa;                            &#xa;&#xa;&#xa;
                        </Array>
                        &#xa;                        &#xa;                        &#xa;&#xa;&#xa;
                    </mxGeometry>
                    &#xa;                    &#xa;                    &#xa;&#xa;&#xa;
                </mxCell>
                &#xa;                &#xa;                &#xa;&#xa;&#xa;
                <mxCell id="18" style="edgeStyle=orthogonalEdgeStyle;rounded=0;orthogonalLoop=1;jettySize=auto;html=1;exitX=0.5;exitY=1;exitDx=0;exitDy=0;exitPerimeter=0;fontColor=#999999;" parent="v-Ei2orhvDABPO7XCgrF-1" source="0" target="11" edge="1">
                    &#xa;                    &#xa;                    &#xa;&#xa;&#xa;
                    <mxGeometry relative="1" as="geometry">
                        &#xa;                        &#xa;                        &#xa;&#xa;&#xa;
                        <Array as="points">
                            &#xa;                            &#xa;                            &#xa;&#xa;&#xa;
                            <mxPoint x="95" y="200"/>
                            &#xa;                            &#xa;                            &#xa;&#xa;&#xa;
                            <mxPoint x="240" y="200"/>
                            &#xa;                            &#xa;                            &#xa;&#xa;&#xa;
                        </Array>
                        &#xa;                        &#xa;                        &#xa;&#xa;&#xa;
                    </mxGeometry>
                    &#xa;                    &#xa;                    &#xa;&#xa;&#xa;
                </mxCell>
                &#xa;                &#xa;                &#xa;&#xa;&#xa;
                <mxCell id="0" value="&lt;div style=&quot;text-align: center&quot;&gt;&lt;font&gt;Task Definition&lt;/font&gt;&lt;/div&gt;&lt;font&gt;&lt;br&gt;{&lt;br&gt;&amp;nbsp; &amp;nbsp; &quot;containerDefinitions&quot;: [&lt;br&gt;&amp;nbsp; &amp;nbsp; ...&lt;br&gt;&amp;nbsp; &amp;nbsp; ...&lt;br&gt;&amp;nbsp; &amp;nbsp; ]&lt;br&gt;}&lt;/font&gt;" style="shape=note;whiteSpace=wrap;html=1;backgroundOutline=1;darkOpacity=0.05;align=left;strokeColor=#999999;fontColor=#999999;" parent="v-Ei2orhvDABPO7XCgrF-1" vertex="1">
                    &#xa;                    &#xa;                    &#xa;&#xa;&#xa;
                    <mxGeometry x="20" y="40" width="150" height="130" as="geometry"/>
                    &#xa;                    &#xa;                    &#xa;&#xa;&#xa;
                </mxCell>
                &#xa;                &#xa;                &#xa;&#xa;&#xa;
                <mxCell id="4" value="" style="edgeStyle=orthogonalEdgeStyle;rounded=0;orthogonalLoop=1;jettySize=auto;html=1;fontColor=#999999;labelBackgroundColor=none;" parent="v-Ei2orhvDABPO7XCgrF-1" source="1" target="0" edge="1">
                    &#xa;                    &#xa;                    &#xa;&#xa;&#xa;
                    <mxGeometry relative="1" as="geometry">
                        &#xa;                        &#xa;                        &#xa;&#xa;&#xa;
                        <Array as="points">
                            &#xa;                            &#xa;                            &#xa;&#xa;&#xa;
                            <mxPoint x="210" y="80"/>
                            &#xa;                            &#xa;                            &#xa;&#xa;&#xa;
                            <mxPoint x="210" y="105"/>
                            &#xa;                            &#xa;                            &#xa;&#xa;&#xa;
                        </Array>
                        &#xa;                        &#xa;                        &#xa;&#xa;&#xa;
                    </mxGeometry>
                    &#xa;                    &#xa;                    &#xa;&#xa;&#xa;
                </mxCell>
                &#xa;                &#xa;                &#xa;&#xa;&#xa;
                <mxCell id="7" value="Web&lt;br&gt;×2" style="edgeLabel;html=1;align=center;verticalAlign=middle;resizable=0;points=[];fontColor=#999999;labelBackgroundColor=none;" parent="4" vertex="1" connectable="0">
                    &#xa;                    &#xa;                    &#xa;&#xa;&#xa;
                    <mxGeometry x="0.4229" y="-3" relative="1" as="geometry">
                        &#xa;                        &#xa;                        &#xa;&#xa;&#xa;
                        <mxPoint as="offset"/>
                        &#xa;                        &#xa;                        &#xa;&#xa;&#xa;
                    </mxGeometry>
                    &#xa;                    &#xa;                    &#xa;&#xa;&#xa;
                </mxCell>
                &#xa;                &#xa;                &#xa;&#xa;&#xa;
                <mxCell id="1" value="&lt;font&gt;Service&lt;/font&gt;" style="outlineConnect=0;gradientColor=none;strokeColor=none;dashed=0;verticalLabelPosition=bottom;verticalAlign=top;align=center;html=1;fontSize=12;fontStyle=0;aspect=fixed;pointerEvents=1;shape=mxgraph.aws4.ecs_task;fillColor=#999999;fontColor=#999999;" parent="v-Ei2orhvDABPO7XCgrF-1" vertex="1">
                    &#xa;                    &#xa;                    &#xa;&#xa;&#xa;
                    <mxGeometry x="229.75" y="40" width="60" height="79.33" as="geometry"/>
                    &#xa;                    &#xa;                    &#xa;&#xa;&#xa;
                </mxCell>
                &#xa;                &#xa;                &#xa;&#xa;&#xa;
                <mxCell id="17" value="" style="edgeStyle=orthogonalEdgeStyle;rounded=0;orthogonalLoop=1;jettySize=auto;html=1;fontColor=#999999;" parent="v-Ei2orhvDABPO7XCgrF-1" source="5" target="10" edge="1">
                    &#xa;                    &#xa;                    &#xa;&#xa;&#xa;
                    <mxGeometry relative="1" as="geometry"/>
                    &#xa;                    &#xa;                    &#xa;&#xa;&#xa;
                </mxCell>
                &#xa;                &#xa;                &#xa;&#xa;&#xa;
                <mxCell id="5" value="&lt;font&gt;Task(Web)&lt;/font&gt;" style="outlineConnect=0;gradientColor=none;strokeColor=none;dashed=0;verticalLabelPosition=bottom;verticalAlign=top;align=center;html=1;fontSize=12;fontStyle=0;aspect=fixed;pointerEvents=1;shape=mxgraph.aws4.ecs_task;fillColor=#999999;fontColor=#999999;" parent="v-Ei2orhvDABPO7XCgrF-1" vertex="1">
                    &#xa;                    &#xa;                    &#xa;&#xa;&#xa;
                    <mxGeometry x="20" y="220" width="60.51" height="80" as="geometry"/>
                    &#xa;                    &#xa;                    &#xa;&#xa;&#xa;
                </mxCell>
                &#xa;                &#xa;                &#xa;&#xa;&#xa;
                <mxCell id="16" value="" style="edgeStyle=orthogonalEdgeStyle;rounded=0;orthogonalLoop=1;jettySize=auto;html=1;fontColor=#999999;" parent="v-Ei2orhvDABPO7XCgrF-1" source="10" target="5" edge="1">
                    &#xa;                    &#xa;                    &#xa;&#xa;&#xa;
                    <mxGeometry relative="1" as="geometry"/>
                    &#xa;                    &#xa;                    &#xa;&#xa;&#xa;
                </mxCell>
                &#xa;                &#xa;                &#xa;&#xa;&#xa;
                <mxCell id="10" value="&lt;font&gt;Task(Redis)&lt;/font&gt;" style="outlineConnect=0;gradientColor=none;strokeColor=none;dashed=0;verticalLabelPosition=bottom;verticalAlign=top;align=center;html=1;fontSize=12;fontStyle=0;aspect=fixed;pointerEvents=1;shape=mxgraph.aws4.ecs_task;fillColor=#999999;fontColor=#999999;" parent="v-Ei2orhvDABPO7XCgrF-1" vertex="1">
                    &#xa;                    &#xa;                    &#xa;&#xa;&#xa;
                    <mxGeometry x="109.49" y="220" width="60.51" height="80" as="geometry"/>
                    &#xa;                    &#xa;                    &#xa;&#xa;&#xa;
                </mxCell>
                &#xa;                &#xa;                &#xa;&#xa;&#xa;
                <mxCell id="11" value="&lt;font&gt;Task(Web)&lt;/font&gt;" style="outlineConnect=0;gradientColor=none;strokeColor=none;dashed=0;verticalLabelPosition=bottom;verticalAlign=top;align=center;html=1;fontSize=12;fontStyle=0;aspect=fixed;pointerEvents=1;shape=mxgraph.aws4.ecs_task;fillColor=#999999;fontColor=#999999;" parent="v-Ei2orhvDABPO7XCgrF-1" vertex="1">
                    &#xa;                    &#xa;                    &#xa;&#xa;&#xa;
                    <mxGeometry x="200" y="220" width="60.51" height="80" as="geometry"/>
                    &#xa;                    &#xa;                    &#xa;&#xa;&#xa;
                </mxCell>
                &#xa;                &#xa;                &#xa;&#xa;&#xa;
                <mxCell id="19" value="EC2 Cluster" style="outlineConnect=0;dashed=0;verticalLabelPosition=bottom;verticalAlign=top;align=center;html=1;shape=mxgraph.aws3.ec2;fillColor=#F58534;gradientColor=none;strokeColor=#999999;fontColor=#999999;" parent="v-Ei2orhvDABPO7XCgrF-1" vertex="1">
                    &#xa;                    &#xa;                    &#xa;&#xa;&#xa;
                    <mxGeometry x="71.75" y="340" width="46.5" height="53" as="geometry"/>
                    &#xa;                    &#xa;                    &#xa;&#xa;&#xa;
                </mxCell>
                &#xa;                &#xa;                &#xa;&#xa;&#xa;
                <mxCell id="23" value="" style="shape=partialRectangle;whiteSpace=wrap;html=1;bottom=1;right=1;left=1;top=0;fillColor=none;routingCenterX=-0.5;strokeColor=#999999;fontColor=#999999;" parent="v-Ei2orhvDABPO7XCgrF-1" vertex="1">
                    &#xa;                    &#xa;                    &#xa;&#xa;&#xa;
                    <mxGeometry x="190" y="340" width="150" height="30" as="geometry"/>
                    &#xa;                    &#xa;                    &#xa;&#xa;&#xa;
                </mxCell>
                &#xa;                &#xa;                &#xa;&#xa;&#xa;
                <mxCell id="21" value="EC2 Cluster" style="outlineConnect=0;dashed=0;verticalLabelPosition=bottom;verticalAlign=top;align=center;html=1;shape=mxgraph.aws3.ec2;fillColor=#F58534;gradientColor=none;strokeColor=#999999;fontColor=#999999;" parent="v-Ei2orhvDABPO7XCgrF-1" vertex="1">
                    &#xa;                    &#xa;                    &#xa;&#xa;&#xa;
                    <mxGeometry x="240.26" y="340" width="49.49" height="53" as="geometry"/>
                    &#xa;                    &#xa;                    &#xa;&#xa;&#xa;
                </mxCell>
                &#xa;                &#xa;                &#xa;&#xa;&#xa;
                <mxCell id="29" style="edgeStyle=orthogonalEdgeStyle;rounded=0;orthogonalLoop=1;jettySize=auto;html=1;fontColor=#999999;" parent="v-Ei2orhvDABPO7XCgrF-1" source="24" target="5" edge="1">
                    &#xa;                    &#xa;                    &#xa;&#xa;&#xa;
                    <mxGeometry relative="1" as="geometry">
                        &#xa;                        &#xa;                        &#xa;&#xa;&#xa;
                        <Array as="points">
                            &#xa;                            &#xa;                            &#xa;&#xa;&#xa;
                            <mxPoint x="40" y="190"/>
                            &#xa;                            &#xa;                            &#xa;&#xa;&#xa;
                        </Array>
                        &#xa;                        &#xa;                        &#xa;&#xa;&#xa;
                    </mxGeometry>
                    &#xa;                    &#xa;                    &#xa;&#xa;&#xa;
                </mxCell>
                &#xa;                &#xa;                &#xa;&#xa;&#xa;
                <mxCell id="31" style="edgeStyle=orthogonalEdgeStyle;rounded=0;orthogonalLoop=1;jettySize=auto;html=1;fontColor=#999999;" parent="v-Ei2orhvDABPO7XCgrF-1" source="24" target="11" edge="1">
                    &#xa;                    &#xa;                    &#xa;&#xa;&#xa;
                    <mxGeometry relative="1" as="geometry">
                        &#xa;                        &#xa;                        &#xa;&#xa;&#xa;
                        <Array as="points">
                            &#xa;                            &#xa;                            &#xa;&#xa;&#xa;
                            <mxPoint x="230" y="190"/>
                            &#xa;                            &#xa;                            &#xa;&#xa;&#xa;
                        </Array>
                        &#xa;                        &#xa;                        &#xa;&#xa;&#xa;
                    </mxGeometry>
                    &#xa;                    &#xa;                    &#xa;&#xa;&#xa;
                </mxCell>
                &#xa;                &#xa;                &#xa;&#xa;&#xa;
                <mxCell id="24" value="ELB" style="outlineConnect=0;dashed=0;verticalLabelPosition=bottom;verticalAlign=top;align=center;html=1;shape=mxgraph.aws3.elastic_load_balancing;fillColor=#F58534;gradientColor=none;strokeColor=#999999;fontColor=#999999;" parent="v-Ei2orhvDABPO7XCgrF-1" vertex="1">
                    &#xa;                    &#xa;                    &#xa;&#xa;&#xa;
                    <mxGeometry x="340" y="157" width="46.5" height="53" as="geometry"/>
                    &#xa;                    &#xa;                    &#xa;&#xa;&#xa;
                </mxCell>
                &#xa;                &#xa;                &#xa;&#xa;&#xa;
                <mxCell id="26" value="登録" style="edgeStyle=orthogonalEdgeStyle;rounded=0;orthogonalLoop=1;jettySize=auto;html=1;fontColor=#999999;labelBackgroundColor=none;" parent="v-Ei2orhvDABPO7XCgrF-1" source="25" target="24" edge="1">
                    &#xa;                    &#xa;                    &#xa;&#xa;&#xa;
                    <mxGeometry relative="1" as="geometry"/>
                    &#xa;                    &#xa;                    &#xa;&#xa;&#xa;
                </mxCell>
                &#xa;                &#xa;                &#xa;&#xa;&#xa;
                <mxCell id="25" value="" style="shape=actor;whiteSpace=wrap;html=1;strokeColor=#999999;fillColor=#999999;fontColor=#999999;" parent="v-Ei2orhvDABPO7XCgrF-1" vertex="1">
                    &#xa;                    &#xa;                    &#xa;&#xa;&#xa;
                    <mxGeometry x="343.25" y="40" width="40" height="60" as="geometry"/>
                    &#xa;                    &#xa;                    &#xa;&#xa;&#xa;
                </mxCell>
                &#xa;                &#xa;                &#xa;&#xa;&#xa;
                <mxCell id="34" style="edgeStyle=orthogonalEdgeStyle;rounded=0;orthogonalLoop=1;jettySize=auto;html=1;entryX=0;entryY=0.5;entryDx=0;entryDy=0;entryPerimeter=0;fontColor=#999999;" parent="v-Ei2orhvDABPO7XCgrF-1" source="32" target="33" edge="1">
                    &#xa;                    &#xa;                    &#xa;&#xa;&#xa;
                    <mxGeometry relative="1" as="geometry">
                        &#xa;                        &#xa;                        &#xa;&#xa;&#xa;
                        <Array as="points">
                            &#xa;                            &#xa;                            &#xa;&#xa;&#xa;
                            <mxPoint x="330" y="225"/>
                            &#xa;                            &#xa;                            &#xa;&#xa;&#xa;
                            <mxPoint x="330" y="285"/>
                            &#xa;                            &#xa;                            &#xa;&#xa;&#xa;
                        </Array>
                        &#xa;                        &#xa;                        &#xa;&#xa;&#xa;
                    </mxGeometry>
                    &#xa;                    &#xa;                    &#xa;&#xa;&#xa;
                </mxCell>
                &#xa;                &#xa;                &#xa;&#xa;&#xa;
                <mxCell id="32" value="&lt;font&gt;IAM&lt;/font&gt;" style="outlineConnect=0;gradientColor=none;fillColor=#C7131F;strokeColor=none;dashed=0;verticalLabelPosition=bottom;verticalAlign=top;align=center;html=1;fontSize=12;fontStyle=0;aspect=fixed;pointerEvents=1;shape=mxgraph.aws4.role;fontColor=#999999;" parent="v-Ei2orhvDABPO7XCgrF-1" vertex="1">
                    &#xa;                    &#xa;                    &#xa;&#xa;&#xa;
                    <mxGeometry x="270" y="210" width="53.18" height="30" as="geometry"/>
                    &#xa;                    &#xa;                    &#xa;&#xa;&#xa;
                </mxCell>
                &#xa;                &#xa;                &#xa;&#xa;&#xa;
                <mxCell id="33" value="SQS" style="outlineConnect=0;dashed=0;verticalLabelPosition=bottom;verticalAlign=top;align=center;html=1;shape=mxgraph.aws3.sqs;fillColor=#D9A741;gradientColor=none;strokeColor=#999999;fontColor=#999999;" parent="v-Ei2orhvDABPO7XCgrF-1" vertex="1">
                    &#xa;                    &#xa;                    &#xa;&#xa;&#xa;
                    <mxGeometry x="340" y="260" width="50" height="50" as="geometry"/>
                    &#xa;                    &#xa;                    &#xa;&#xa;&#xa;
                </mxCell>
                &#xa;                &#xa;                &#xa;&#xa;&#xa;
            </root>
            &#xa;            &#xa;            &#xa;&#xa;&#xa;
        </mxGraphModel>
        &#xa;        &#xa;        &#xa;&#xa;&#xa;
    </diagram>
    <diagram id="GynvM2tM9o5GG25oavX-" name="AWSネットワークの構成要素">
        &#xa;        &#xa;&#xa;
        <mxGraphModel dx="2249" dy="830" grid="1" gridSize="10" guides="1" tooltips="1" connect="1" arrows="1" fold="1" page="1" pageScale="1" pageWidth="827" pageHeight="1169" math="0" shadow="0">
            &#xa;            &#xa;&#xa;
            <root>
                &#xa;                &#xa;&#xa;
                <mxCell id="0"/>
                &#xa;                &#xa;&#xa;
                <mxCell id="1" parent="0"/>
                &#xa;                &#xa;&#xa;
                <mxCell id="2" value="" style="rounded=1;arcSize=10;dashed=0;fillColor=none;gradientColor=none;strokeWidth=2;strokeColor=#999999;fontColor=#999999;" parent="1" vertex="1">
                    &#xa;                    &#xa;&#xa;
                    <mxGeometry x="240" y="20" width="587" height="360" as="geometry"/>
                    &#xa;                    &#xa;&#xa;
                </mxCell>
                &#xa;                &#xa;&#xa;
                <mxCell id="3" value="" style="dashed=0;html=1;shape=mxgraph.aws3.cloud;fillColor=#F58536;gradientColor=none;dashed=0;strokeColor=#999999;fontColor=#999999;" parent="1" vertex="1">
                    &#xa;                    &#xa;&#xa;
                    <mxGeometry x="247" width="52" height="36" as="geometry"/>
                    &#xa;                    &#xa;&#xa;
                </mxCell>
                &#xa;                &#xa;&#xa;
                <mxCell id="4" value="VPC" style="outlineConnect=0;gradientColor=none;html=1;whiteSpace=wrap;fontSize=12;fontStyle=0;shape=mxgraph.aws4.group;grIcon=mxgraph.aws4.group_vpc;fillColor=none;verticalAlign=top;align=left;spacingLeft=30;dashed=0;strokeColor=#999999;fontColor=#999999;" parent="1" vertex="1">
                    &#xa;                    &#xa;&#xa;
                    <mxGeometry x="260" y="160" width="550" height="210" as="geometry"/>
                    &#xa;                    &#xa;&#xa;
                </mxCell>
                &#xa;                &#xa;&#xa;
                <mxCell id="6" value="Subnet" style="outlineConnect=0;gradientColor=none;html=1;whiteSpace=wrap;fontSize=12;fontStyle=0;shape=mxgraph.aws4.group;grIcon=mxgraph.aws4.group_subnet;fillColor=none;verticalAlign=top;align=left;spacingLeft=30;dashed=0;strokeColor=#999999;fontColor=#999999;" parent="1" vertex="1">
                    &#xa;                    &#xa;&#xa;
                    <mxGeometry x="310" y="182" width="490" height="180" as="geometry"/>
                    &#xa;                    &#xa;&#xa;
                </mxCell>
                &#xa;                &#xa;&#xa;
                <mxCell id="7" style="edgeStyle=orthogonalEdgeStyle;rounded=0;orthogonalLoop=1;jettySize=auto;html=1;exitX=1;exitY=0.7;exitDx=0;exitDy=0;exitPerimeter=0;entryX=0;entryY=0.05;entryDx=0;entryDy=0;entryPerimeter=0;strokeColor=#999999;fontColor=#999999;" parent="1" source="8" target="2" edge="1">
                    &#xa;                    &#xa;&#xa;
                    <mxGeometry relative="1" as="geometry"/>
                    &#xa;                    &#xa;&#xa;
                </mxCell>
                &#xa;                &#xa;&#xa;
                <mxCell id="8" value="" style="outlineConnect=0;dashed=0;verticalLabelPosition=bottom;verticalAlign=top;align=center;html=1;shape=mxgraph.aws3.internet_2;fillColor=#D2D3D3;gradientColor=none;strokeColor=#999999;fontColor=#999999;" parent="1" vertex="1">
                    &#xa;                    &#xa;&#xa;
                    <mxGeometry width="79.5" height="54" as="geometry"/>
                    &#xa;                    &#xa;&#xa;
                </mxCell>
                &#xa;                &#xa;&#xa;
                <mxCell id="9" style="edgeStyle=orthogonalEdgeStyle;rounded=0;orthogonalLoop=1;jettySize=auto;html=1;exitX=0.5;exitY=0;exitDx=0;exitDy=0;entryX=0.5;entryY=1;entryDx=0;entryDy=0;entryPerimeter=0;strokeColor=#999999;fontColor=#999999;" parent="1" source="11" target="8" edge="1">
                    &#xa;                    &#xa;&#xa;
                    <mxGeometry relative="1" as="geometry"/>
                    &#xa;                    &#xa;&#xa;
                </mxCell>
                &#xa;                &#xa;&#xa;
                <mxCell id="10" value="" style="edgeStyle=orthogonalEdgeStyle;rounded=0;orthogonalLoop=1;jettySize=auto;html=1;strokeColor=#999999;fontColor=#999999;" parent="1" source="11" target="17" edge="1">
                    &#xa;                    &#xa;&#xa;
                    <mxGeometry relative="1" as="geometry"/>
                    &#xa;                    &#xa;&#xa;
                </mxCell>
                &#xa;                &#xa;&#xa;
                <mxCell id="11" value="" style="rounded=1;arcSize=10;dashed=0;fillColor=none;gradientColor=none;strokeWidth=2;strokeColor=#999999;fontColor=#999999;" parent="1" vertex="1">
                    &#xa;                    &#xa;&#xa;
                    <mxGeometry y="100" width="200" height="60" as="geometry"/>
                    &#xa;                    &#xa;&#xa;
                </mxCell>
                &#xa;                &#xa;&#xa;
                <mxCell id="12" value="" style="dashed=0;html=1;shape=mxgraph.aws3.corporate_data_center;fillColor=#7D7C7C;gradientColor=none;dashed=0;strokeColor=#999999;fontColor=#999999;" parent="1" vertex="1">
                    &#xa;                    &#xa;&#xa;
                    <mxGeometry x="20" y="80" width="30" height="42" as="geometry"/>
                    &#xa;                    &#xa;&#xa;
                </mxCell>
                &#xa;                &#xa;&#xa;
                <mxCell id="13" value="オンプレミス&lt;br&gt;データセンター" style="text;html=1;fillColor=none;align=center;verticalAlign=middle;whiteSpace=wrap;rounded=0;fontColor=#999999;" parent="1" vertex="1">
                    &#xa;                    &#xa;&#xa;
                    <mxGeometry x="25" y="122" width="150" height="20" as="geometry"/>
                    &#xa;                    &#xa;&#xa;
                </mxCell>
                &#xa;                &#xa;&#xa;
                <mxCell id="14" style="edgeStyle=orthogonalEdgeStyle;rounded=0;orthogonalLoop=1;jettySize=auto;html=1;exitX=0.5;exitY=0;exitDx=0;exitDy=0;entryX=0.5;entryY=1;entryDx=0;entryDy=0;strokeColor=#999999;fontColor=#999999;" parent="1" source="15" target="11" edge="1">
                    &#xa;                    &#xa;&#xa;
                    <mxGeometry relative="1" as="geometry"/>
                    &#xa;                    &#xa;&#xa;
                </mxCell>
                &#xa;                &#xa;&#xa;
                <mxCell id="15" value="Corporate data center" style="points=[[0,0],[0.25,0],[0.5,0],[0.75,0],[1,0],[1,0.25],[1,0.5],[1,0.75],[1,1],[0.75,1],[0.5,1],[0.25,1],[0,1],[0,0.75],[0,0.5],[0,0.25]];outlineConnect=0;gradientColor=none;html=1;whiteSpace=wrap;fontSize=12;fontStyle=0;shape=mxgraph.aws4.group;grIcon=mxgraph.aws4.group_corporate_data_center;fillColor=none;verticalAlign=top;align=left;spacingLeft=30;dashed=0;strokeColor=#999999;fontColor=#999999;" parent="1" vertex="1">
                    &#xa;                    &#xa;&#xa;
                    <mxGeometry y="190" width="200" height="190" as="geometry"/>
                    &#xa;                    &#xa;&#xa;
                </mxCell>
                &#xa;                &#xa;&#xa;
                <mxCell id="16" style="edgeStyle=orthogonalEdgeStyle;rounded=0;orthogonalLoop=1;jettySize=auto;html=1;exitX=0.75;exitY=1;exitDx=0;exitDy=0;exitPerimeter=0;entryX=0;entryY=0.5;entryDx=0;entryDy=0;entryPerimeter=0;strokeColor=#999999;fontColor=#999999;" parent="1" source="17" target="20" edge="1">
                    &#xa;                    &#xa;&#xa;
                    <mxGeometry relative="1" as="geometry">
                        &#xa;                        &#xa;&#xa;
                        <Array as="points">
                            &#xa;                            &#xa;&#xa;
                            <mxPoint x="250" y="251"/>
                            &#xa;                            &#xa;&#xa;
                        </Array>
                        &#xa;                        &#xa;&#xa;
                    </mxGeometry>
                    &#xa;                    &#xa;&#xa;
                </mxCell>
                &#xa;                &#xa;&#xa;
                <mxCell id="17" value="&lt;font&gt;Direct Connect&lt;/font&gt;" style="points=[[0,0,0],[0.25,0,0],[0.5,0,0],[0.75,0,0],[1,0,0],[0,1,0],[0.25,1,0],[0.5,1,0],[0.75,1,0],[1,1,0],[0,0.25,0],[0,0.5,0],[0,0.75,0],[1,0.25,0],[1,0.5,0],[1,0.75,0]];outlineConnect=0;gradientColor=#945DF2;gradientDirection=north;fillColor=#5A30B5;dashed=0;verticalLabelPosition=bottom;verticalAlign=top;align=center;html=1;fontSize=12;fontStyle=0;aspect=fixed;shape=mxgraph.aws4.resourceIcon;resIcon=mxgraph.aws4.direct_connect;strokeColor=#999999;fontColor=#999999;" parent="1" vertex="1">
                    &#xa;                    &#xa;&#xa;
                    <mxGeometry x="220" y="110" width="40" height="40" as="geometry"/>
                    &#xa;                    &#xa;&#xa;
                </mxCell>
                &#xa;                &#xa;&#xa;
                <mxCell id="18" style="edgeStyle=orthogonalEdgeStyle;rounded=0;orthogonalLoop=1;jettySize=auto;html=1;exitX=1;exitY=0.5;exitDx=0;exitDy=0;exitPerimeter=0;entryX=0;entryY=0.5;entryDx=0;entryDy=0;entryPerimeter=0;strokeColor=#999999;fontColor=#999999;" parent="1" source="19" target="20" edge="1">
                    &#xa;                    &#xa;&#xa;
                    <mxGeometry relative="1" as="geometry">
                        &#xa;                        &#xa;&#xa;
                        <Array as="points">
                            &#xa;                            &#xa;&#xa;
                            <mxPoint x="220" y="341"/>
                            &#xa;                            &#xa;&#xa;
                            <mxPoint x="220" y="251"/>
                            &#xa;                            &#xa;&#xa;
                        </Array>
                        &#xa;                        &#xa;&#xa;
                    </mxGeometry>
                    &#xa;                    &#xa;&#xa;
                </mxCell>
                &#xa;                &#xa;&#xa;
                <mxCell id="19" value="顧客ゲートウェイ" style="outlineConnect=0;dashed=0;verticalLabelPosition=bottom;verticalAlign=top;align=center;html=1;shape=mxgraph.aws3.customer_gateway;fillColor=#F58534;gradientColor=none;strokeColor=#999999;fontColor=#999999;" parent="1" vertex="1">
                    &#xa;                    &#xa;&#xa;
                    <mxGeometry x="170" y="318" width="39" height="42" as="geometry"/>
                    &#xa;                    &#xa;&#xa;
                </mxCell>
                &#xa;                &#xa;&#xa;
                <mxCell id="20" value="VPNゲートウェイ" style="outlineConnect=0;dashed=0;verticalLabelPosition=bottom;verticalAlign=top;align=center;html=1;shape=mxgraph.aws3.vpn_gateway;fillColor=#F58534;gradientColor=none;strokeColor=#999999;fontColor=#999999;" parent="1" vertex="1">
                    &#xa;                    &#xa;&#xa;
                    <mxGeometry x="253.5" y="230" width="39" height="42" as="geometry"/>
                    &#xa;                    &#xa;&#xa;
                </mxCell>
                &#xa;                &#xa;&#xa;
                <mxCell id="21" value="ルータ" style="outlineConnect=0;dashed=0;verticalLabelPosition=bottom;verticalAlign=top;align=center;html=1;shape=mxgraph.aws3.router;fillColor=#F58534;gradientColor=none;strokeColor=#999999;fontColor=#999999;" parent="1" vertex="1">
                    &#xa;                    &#xa;&#xa;
                    <mxGeometry x="290" y="310" width="39" height="42" as="geometry"/>
                    &#xa;                    &#xa;&#xa;
                </mxCell>
                &#xa;                &#xa;&#xa;
                <mxCell id="22" value="S3" style="pointerEvents=1;shadow=0;dashed=0;html=1;fillColor=#DF8C42;labelPosition=center;verticalLabelPosition=bottom;verticalAlign=top;align=center;outlineConnect=0;shape=mxgraph.veeam2.aws_s3;strokeColor=#999999;fontColor=#999999;" parent="1" vertex="1">
                    &#xa;                    &#xa;&#xa;
                    <mxGeometry x="320" y="40" width="40" height="40" as="geometry"/>
                    &#xa;                    &#xa;&#xa;
                </mxCell>
                &#xa;                &#xa;&#xa;
                <mxCell id="23" value="CloudWatch" style="outlineConnect=0;dashed=0;verticalLabelPosition=bottom;verticalAlign=top;align=center;html=1;shape=mxgraph.aws3.cloudwatch;fillColor=#759C3E;gradientColor=none;strokeColor=#999999;fontColor=#999999;" parent="1" vertex="1">
                    &#xa;                    &#xa;&#xa;
                    <mxGeometry x="400" y="36" width="40" height="44" as="geometry"/>
                    &#xa;                    &#xa;&#xa;
                </mxCell>
                &#xa;                &#xa;&#xa;
                <mxCell id="24" value="&lt;font&gt;DynamoDB&lt;/font&gt;" style="points=[[0,0,0],[0.25,0,0],[0.5,0,0],[0.75,0,0],[1,0,0],[0,1,0],[0.25,1,0],[0.5,1,0],[0.75,1,0],[1,1,0],[0,0.25,0],[0,0.5,0],[0,0.75,0],[1,0.25,0],[1,0.5,0],[1,0.75,0]];outlineConnect=0;gradientColor=#4D72F3;gradientDirection=north;fillColor=#3334B9;dashed=0;verticalLabelPosition=bottom;verticalAlign=top;align=center;html=1;fontSize=12;fontStyle=0;aspect=fixed;shape=mxgraph.aws4.resourceIcon;resIcon=mxgraph.aws4.dynamodb;strokeColor=#999999;fontColor=#999999;" parent="1" vertex="1">
                    &#xa;                    &#xa;&#xa;
                    <mxGeometry x="480" y="40" width="40" height="40" as="geometry"/>
                    &#xa;                    &#xa;&#xa;
                </mxCell>
                &#xa;                &#xa;&#xa;
                <mxCell id="25" value="&lt;font&gt;Management&lt;br&gt;Cosole&lt;/font&gt;" style="points=[[0,0,0],[0.25,0,0],[0.5,0,0],[0.75,0,0],[1,0,0],[0,1,0],[0.25,1,0],[0.5,1,0],[0.75,1,0],[1,1,0],[0,0.25,0],[0,0.5,0],[0,0.75,0],[1,0.25,0],[1,0.5,0],[1,0.75,0]];points=[[0,0,0],[0.25,0,0],[0.5,0,0],[0.75,0,0],[1,0,0],[0,1,0],[0.25,1,0],[0.5,1,0],[0.75,1,0],[1,1,0],[0,0.25,0],[0,0.5,0],[0,0.75,0],[1,0.25,0],[1,0.5,0],[1,0.75,0]];outlineConnect=0;gradientColor=#F34482;gradientDirection=north;fillColor=#BC1356;dashed=0;verticalLabelPosition=bottom;verticalAlign=top;align=center;html=1;fontSize=12;fontStyle=0;aspect=fixed;shape=mxgraph.aws4.resourceIcon;resIcon=mxgraph.aws4.management_console;strokeColor=#999999;fontColor=#999999;" parent="1" vertex="1">
                    &#xa;                    &#xa;&#xa;
                    <mxGeometry x="560" y="40" width="40" height="40" as="geometry"/>
                    &#xa;                    &#xa;&#xa;
                </mxCell>
                &#xa;                &#xa;&#xa;
                <mxCell id="27" value="&lt;font&gt;Elastic IP&lt;br&gt;アドレス&lt;br&gt;&lt;/font&gt;" style="outlineConnect=0;gradientColor=none;fillColor=#D05C17;dashed=0;verticalLabelPosition=bottom;verticalAlign=top;align=center;html=1;fontSize=12;fontStyle=0;aspect=fixed;pointerEvents=1;shape=mxgraph.aws4.elastic_ip_address;strokeColor=#999999;fontColor=#999999;" parent="1" vertex="1">
                    &#xa;                    &#xa;&#xa;
                    <mxGeometry x="680" y="48.5" width="54.36" height="23" as="geometry"/>
                    &#xa;                    &#xa;&#xa;
                </mxCell>
                &#xa;                &#xa;&#xa;
                <mxCell id="28" value="インターネット&lt;br&gt;ゲートウェイ" style="outlineConnect=0;dashed=0;verticalLabelPosition=bottom;verticalAlign=top;align=center;html=1;shape=mxgraph.aws3.internet_gateway;fillColor=#F58534;gradientColor=none;strokeColor=#999999;fontColor=#999999;" parent="1" vertex="1">
                    &#xa;                    &#xa;&#xa;
                    <mxGeometry x="620" y="130" width="40" height="40" as="geometry"/>
                    &#xa;                    &#xa;&#xa;
                </mxCell>
                &#xa;                &#xa;&#xa;
                <mxCell id="29" value="&lt;font&gt;エンドポイント&lt;/font&gt;" style="outlineConnect=0;gradientColor=none;fillColor=#C7131F;dashed=0;verticalLabelPosition=bottom;verticalAlign=top;align=center;html=1;fontSize=12;fontStyle=0;aspect=fixed;shape=mxgraph.aws4.endpoint;strokeColor=#999999;fontColor=#999999;" parent="1" vertex="1">
                    &#xa;                    &#xa;&#xa;
                    <mxGeometry x="723" y="130" width="40" height="40" as="geometry"/>
                    &#xa;                    &#xa;&#xa;
                </mxCell>
                &#xa;                &#xa;&#xa;
                <mxCell id="30" value="" style="rounded=1;arcSize=10;dashed=1;fillColor=none;gradientColor=none;dashPattern=8 4;strokeWidth=2;strokeColor=#999999;fontColor=#999999;" parent="1" vertex="1">
                    &#xa;                    &#xa;&#xa;
                    <mxGeometry x="340.25" y="210" width="209.75" height="137.75" as="geometry"/>
                    &#xa;                    &#xa;&#xa;
                </mxCell>
                &#xa;                &#xa;&#xa;
                <mxCell id="32" value="" style="rounded=1;arcSize=10;dashed=1;fillColor=none;gradientColor=none;dashPattern=8 4;strokeWidth=2;strokeColor=#999999;fontColor=#999999;" parent="1" vertex="1">
                    &#xa;                    &#xa;&#xa;
                    <mxGeometry x="570" y="210" width="206.75" height="137.75" as="geometry"/>
                    &#xa;                    &#xa;&#xa;
                </mxCell>
                &#xa;                &#xa;&#xa;
                <mxCell id="33" value="セキュリティグループ" style="text;html=1;fillColor=none;align=center;verticalAlign=middle;whiteSpace=wrap;rounded=0;fontColor=#999999;" parent="1" vertex="1">
                    &#xa;                    &#xa;&#xa;
                    <mxGeometry x="560" y="210" width="150" height="20" as="geometry"/>
                    &#xa;                    &#xa;&#xa;
                </mxCell>
                &#xa;                &#xa;&#xa;
                <mxCell id="34" value="セキュリティグループ" style="text;html=1;fillColor=none;align=center;verticalAlign=middle;whiteSpace=wrap;rounded=0;fontColor=#999999;" parent="1" vertex="1">
                    &#xa;                    &#xa;&#xa;
                    <mxGeometry x="330" y="210" width="150" height="20" as="geometry"/>
                    &#xa;                    &#xa;&#xa;
                </mxCell>
                &#xa;                &#xa;&#xa;
                <mxCell id="35" value="Application&lt;br&gt;Load Balancer" style="outlineConnect=0;dashed=0;verticalLabelPosition=bottom;verticalAlign=top;align=center;html=1;shape=mxgraph.aws3.classic_load_balancer;fillColor=#F58534;gradientColor=none;strokeColor=#999999;fontColor=#999999;" parent="1" vertex="1">
                    &#xa;                    &#xa;&#xa;
                    <mxGeometry x="427.13" y="257.88" width="36" height="42" as="geometry"/>
                    &#xa;                    &#xa;&#xa;
                </mxCell>
                &#xa;                &#xa;&#xa;
                <mxCell id="36" value="EC2" style="outlineConnect=0;dashed=0;verticalLabelPosition=bottom;verticalAlign=top;align=center;html=1;shape=mxgraph.aws3.ec2;fillColor=#F58534;gradientColor=none;strokeColor=#999999;fontColor=#999999;" parent="1" vertex="1">
                    &#xa;                    &#xa;&#xa;
                    <mxGeometry x="653.38" y="260" width="40" height="50" as="geometry"/>
                    &#xa;                    &#xa;&#xa;
                </mxCell>
                &#xa;                &#xa;&#xa;
                <mxCell id="37" value="" style="shape=callout;whiteSpace=wrap;html=1;perimeter=calloutPerimeter;fillColor=none;rotation=-180;position2=0.42;horizontal=1;verticalAlign=middle;strokeColor=#999999;fontColor=#999999;" parent="1" vertex="1">
                    &#xa;                    &#xa;&#xa;
                    <mxGeometry x="213" y="360" width="120" height="90" as="geometry"/>
                    &#xa;                    &#xa;&#xa;
                </mxCell>
                &#xa;                &#xa;&#xa;
                <mxCell id="38" value="ルートテーブル&lt;br&gt;ネットワークACL" style="text;html=1;fillColor=none;align=center;verticalAlign=middle;whiteSpace=wrap;rounded=0;fontColor=#999999;" parent="1" vertex="1">
                    &#xa;                    &#xa;&#xa;
                    <mxGeometry x="190" y="410" width="160" height="20" as="geometry"/>
                    &#xa;                    &#xa;&#xa;
                </mxCell>
                &#xa;                &#xa;&#xa;
            </root>
            &#xa;            &#xa;&#xa;
        </mxGraphModel>
        &#xa;        &#xa;&#xa;
    </diagram>
</mxfile>